<svg id="jquery-logo" xmlns="http://www.w3.org/2000/svg" viewBox="0 0 218.1 48.58"><title>jquery-logo[svg]</title><path id="jquery" d="M64.15,17.62c-1.43,5.24-2.85,10.48-3.8,15.72-.48,1.43-2.38,15.24-8.08,15.24H43.72V46.67c.47-1.43.95-3.33,1.42-4.76a5.9686,5.9686,0,0,0,2.85-.48c3.81-1.43,3.81-7.14,4.76-10,.95-4.76,2.37-9.52,3.32-14.28C56.07,17.15,63.67,17.15,64.15,17.62Zm91.23-.95V18.1H144.93c.47-3.33,4.27-3.81,5.7-3.81A5.7863,5.7863,0,0,1,155.38,16.67ZM190.54,8.1c1.9,0,2.85,3.33,3.8,4.76v1.43h-17.1c-3.33,7.14-3.33,15.71-5.7,22.38h-6.66V33.34L170.59,8.1Zm-73.65,0-3.32,18.09c-.48,4.29,3.8,3.81,5.7,3.81a8.139,8.139,0,0,0,3.32-.47c1.91-6.67,3.33-13.81,4.76-21.43h7.6l-6.18,28.57h-17.1c-1.9-1.43-5.23-3.33-5.23-4.76V22.86c.95-4.76,2.37-10,3.33-14.76Zm46.57,8.09a35.4082,35.4082,0,0,1-1.43,8.58H143.98a2.4444,2.4444,0,0,0-.95,1.9c0,1.43,1.42,3.33,2.37,3.33h14.73c.48.48.48,0,.48.96a18.226,18.226,0,0,1-1.9,6.19H143.5c-1.42-.96-8.08-3.34-8.08-5.72V22.86c2.85-13.81,8.56-15.24,17.11-15.24C159.18,7.62,163.46,8.58,163.46,16.19ZM94.08,13.81c0,.96-2.37,10-3.8,15.24H80.31c-4.28-1.43-3.81-4.76-3.81-6.66,0-6.2,1.9-14.77,10.46-14.77C91.23,7.62,94.08,9.05,94.08,13.81ZM66.05,7.62c-.47,2.86-.95,4.77-1.43,6.67h-7.6c.48-2.86.95-4.76,1.43-6.67ZM218.1,3.81c-7.6,10.48-20.91,23.81-21.38,32.86h-8.08A56.3036,56.3036,0,0,0,190.07,30c0-1.42-2.38-8.57-3.33-12.85a11.7035,11.7035,0,0,1,3.8-.48c4.75,0,3.33-.48,6.18,4.76L209.07,3.81ZM103.11,12.86c0,4.76-3.8,11.91-4.75,16.19.95.95,2.38.95,3.8.95-.47,2.86-.95,4.77-1.42,6.67l-15.21.48c-3.32,0-9.03-.48-11.88-1.91-.95-.47-5.7-4.76-5.7-6.19V18.58C71.75,3.81,77.93,0,87.91,0,96.46,0,103.11,4.29,103.11,12.86Z" fill="#b7b7b7" fill-rule="evenodd" opacity="0.6"/><path id="logo" d="M2.85,15.72c0,12.86,12.83,20.95,21.86,20.95,4.28,0,6.18-.48,11.41-3.33C33.26,40,24.71,40.96,20.91,40.96,9.03,40.96,0,30.96,0,20.48c0-2.86.48-6.67,3.33-9.05C3.33,12.86,2.85,14.77,2.85,15.72Zm26.14,10c3.8,0,2.85-1.43,8.08-1.91-3.81,4.77-6.66,4.77-10.46,4.77-8.55,0-14.73-5.72-14.73-14.29,0-1.43.48-4.76,1.43-5.71C11.88,19.05,21.39,25.72,28.99,25.72Zm6.65-9.53a11.6068,11.6068,0,0,1-5.23,1.91c-2.85,0-9.02-2.86-9.02-6.67l.47-5.24C20.91,11.91,30.89,18.58,35.64,16.19Z" fill="#fff" fill-rule="evenodd" opacity="0.6"/></svg>