<svg class="nav-arrow" xmlns="http://www.w3.org/2000/svg" viewBox="0 0 329.625 195.8"><title>nav-arrow[new]2</title><path class="arrow" d="M233.2,195a5.9393,5.9393,0,0,0,3.8-1.6l90.9-90.8a6.0977,6.0977,0,0,0,0-8.5L237,3.1a6.1672,6.1672,0,0,0-3.8-1.6H217.7c-2.1,0-2.6,1.2-1.1,2.7L306.4,94a5.9174,5.9174,0,0,1,0,8.5l-89.8,89.8c-1.4,1.5-1,2.7,1.1,2.7Z" fill="#fff" fill-rule="evenodd"/><g class="box"><path d="M175.2,17.7a17.8028,17.8028,0,0,0-11.1-4.6H23.2a9.7091,9.7091,0,0,0-9.7,9.7v150a9.7091,9.7091,0,0,0,9.7,9.7H165.4a17.8028,17.8028,0,0,0,11.1-4.6l76.6-77.2a3.6832,3.6832,0,0,0,0-5.3Z"/><path d="M272.6,95.6,182.3,5.3A20.4074,20.4074,0,0,0,169.5,0H11.2A11.1816,11.1816,0,0,0,0,11.2V184.5a11.3524,11.3524,0,0,0,11.3,11.3H171.1a20.9731,20.9731,0,0,0,12.8-5.3L272.7,101A3.897,3.897,0,0,0,272.6,95.6Zm-19.5,5.3-76.6,77.2a17.8028,17.8028,0,0,1-11.1,4.6H23.2a9.7091,9.7091,0,0,1-9.7-9.7V23a9.7091,9.7091,0,0,1,9.7-9.7H164.1a17.8028,17.8028,0,0,1,11.1,4.6l77.9,77.8A3.5652,3.5652,0,0,1,253.1,100.9Z" fill="#fff"/><path class="black-arrow" d="M306.4,94l-2.1215-2.1211L216.0051,3.6212A8.3484,8.3484,0,0,0,210.8836,1.5H181.2061c-1.65,0-2.044.9531-.8754,2.118l.4025.4012A19.9876,19.9876,0,0,1,182.3,5.3l90.3,90.3a3.897,3.897,0,0,1,.1,5.4l-88.8,89.5c-.1467.1341-.3062.2511-.4567.38l-1.9773,1.9911c-1.1626,1.1707-.7639,2.1286.8861,2.1286h28.8832a8.4516,8.4516,0,0,0,4.7239-1.7815A3.5945,3.5945,0,0,1,216.6,192.3l70.1729-70.1728L306.4,102.5A5.9174,5.9174,0,0,0,306.4,94Z"/></g></svg>