<?xml version="1.0" encoding="utf-8"?>
<!-- Generator: Adobe Illustrator 23.0.1, SVG Export Plug-In . SVG Version: 6.00 Build 0)  -->
<svg version="1.1" id="Layer_1" xmlns="http://www.w3.org/2000/svg" xmlns:xlink="http://www.w3.org/1999/xlink" x="0px" y="0px"
	 viewBox="0 0 340 340" style="enable-background:new 0 0 340 340;" xml:space="preserve">
<style type="text/css">
	.st0{fill-rule:evenodd;clip-rule:evenodd;fill:#FFFFFF;}
	.st1{opacity:0.8;fill-rule:evenodd;clip-rule:evenodd;enable-background:new    ;}
	.st2{fill:#FFFFFF;}
</style>
<path id="circle" class="st0" d="M50.3,170c0,66.3,53.7,120,120,120s120-53.7,120-120s-53.7-120-120-120S50.3,103.7,50.3,170z
	 M60.8,170c0-60.5,49-109.5,109.5-109.5s109.5,49,109.5,109.5s-49,109.5-109.5,109.5S60.8,230.5,60.8,170z" filter="url(#filter1)"/>
<path id="circle-bg" class="st1" d="M60.8,170c0-60.5,49-109.5,109.5-109.5s109.5,49,109.5,109.5s-49,109.5-109.5,109.5
	S60.8,230.5,60.8,170z"/>
<g id="icon_1_">
	<path class="st2" d="M218.2,125.4v55.8c0,1.9-0.7,3.4-2,4.7c-1.4,1.3-3,2-4.9,2h-78.9c-1.9,0-3.6-0.7-4.9-2c-1.4-1.3-2-2.9-2-4.7
		V87.5c0-1.9,0.7-3.4,2-4.7c1.4-1.3,3-2,4.9-2h39.5v37.9c0,1.9,0.7,3.4,2,4.7c1.4,1.3,3,2,4.9,2H218.2z M199.6,150v-4.5
		c0-0.7-0.2-1.2-0.7-1.6s-1-0.6-1.7-0.6h-51.1c-0.7,0-1.2,0.2-1.7,0.6c-0.4,0.4-0.7,1-0.7,1.6v4.5c0,0.7,0.2,1.2,0.7,1.6
		c0.4,0.4,1,0.6,1.7,0.6h51.1c0.7,0,1.2-0.2,1.7-0.6S199.6,150.6,199.6,150z M199.6,167.8v-4.5c0-0.7-0.2-1.2-0.7-1.6
		s-1-0.6-1.7-0.6h-51.1c-0.7,0-1.2,0.2-1.7,0.6c-0.4,0.4-0.7,1-0.7,1.6v4.5c0,0.7,0.2,1.2,0.7,1.6c0.4,0.4,1,0.6,1.7,0.6h51.1
		c0.7,0,1.2-0.2,1.7-0.6C199.4,169,199.6,168.5,199.6,167.8z M218,116.5h-36.9V81c4,0.7,7.2,2.2,9.6,4.5l22.6,21.8
		C215.7,109.6,217.3,112.7,218,116.5z"/>
</g>
<g id="resume">
	<path class="st2" d="M107.9,230.4h-3.1v14.3h-6.2v-39.1h10c3.1,0,5.5,1,7.2,3.1c1.7,2,2.6,5,2.6,8.7c0,5.2-1.5,8.8-4.5,10.9l5.4,16
		v0.4h-6.7L107.9,230.4z M104.8,223.8h3.5c1.2,0,2.2-0.5,2.8-1.6c0.6-1,0.9-2.4,0.9-4.2c0-3.9-1.2-5.9-3.6-5.9h-3.6V223.8z"/>
	<path class="st2" d="M138.5,227.7h-9.7v10.4h11.5v6.6h-17.7v-39.1h17.7v6.6h-11.5v9.2h9.7V227.7z"/>
	<path class="st2" d="M156.9,234.4c0-1.6-0.3-2.8-1-3.6c-0.6-0.8-1.8-1.7-3.5-2.5c-3.1-1.5-5.3-3.2-6.7-5.2c-1.4-2-2-4.4-2-7.1
		c0-3.3,0.9-5.9,2.8-7.9s4.2-3,7-3c1.9,0,3.6,0.5,5.1,1.5c1.5,1,2.6,2.4,3.4,4.3s1.2,3.9,1.2,6.3H157c0-1.8-0.3-3.2-0.9-4.2
		s-1.5-1.4-2.7-1.4c-1.1,0-1.9,0.4-2.5,1.2c-0.6,0.8-0.9,1.9-0.9,3.3c0,1.1,0.3,2,1,2.9c0.7,0.9,1.9,1.8,3.6,2.7
		c3,1.4,5.2,3.1,6.6,5.1c1.4,2,2,4.6,2,7.7c0,3.4-0.9,6.1-2.6,8c-1.7,1.9-4,2.9-7,2.9c-2,0-3.8-0.5-5.5-1.6s-2.9-2.5-3.9-4.5
		c-0.9-1.9-1.4-4.2-1.4-6.8h6.3c0,2.3,0.3,3.9,1,4.9c0.7,1,1.8,1.5,3.4,1.5C155.9,238.8,156.9,237.3,156.9,234.4z"/>
	<path class="st2" d="M187.4,205.5v27.1c0,4.1-0.9,7.2-2.7,9.3c-1.7,2.2-4.2,3.2-7.5,3.2c-3.3,0-5.8-1.1-7.6-3.3s-2.6-5.3-2.6-9.5
		v-26.9h6.3v26.9c0,2.2,0.3,3.8,0.8,4.8c0.6,0.9,1.6,1.4,3.1,1.4s2.5-0.5,3.1-1.4c0.6-0.9,0.8-2.5,0.8-4.6v-27H187.4z"/>
	<path class="st2" d="M200.3,205.5l5.8,28.3l5.8-28.3h8.1v39.1h-6.3v-10.6l0.6-16.3l-6.2,26.9H204l-6.2-26.9l0.6,16.3v10.6h-6.2
		v-39.1H200.3z"/>
	<path class="st2" d="M241.1,227.7h-9.7v10.4h11.5v6.6h-17.7v-39.1h17.7v6.6h-11.5v9.2h9.7V227.7z"/>
</g>
</svg>
