<?xml version="1.0" encoding="utf-8"?>
<!-- Generator: Adobe Illustrator 23.0.1, SVG Export Plug-In . SVG Version: 6.00 Build 0)  -->
<svg version="1.1" id="Layer_1" xmlns="http://www.w3.org/2000/svg" xmlns:xlink="http://www.w3.org/1999/xlink" x="0px" y="0px"
	 viewBox="0 0 340 340" style="enable-background:new 0 0 340 340;" xml:space="preserve">
<style type="text/css">
	.st0{fill-rule:evenodd;clip-rule:evenodd;fill:#FFFFFF;}
	.st1{opacity:0.8;fill-rule:evenodd;clip-rule:evenodd;enable-background:new    ;}
</style>
<path id="circle" class="st0" d="M50.3,170c0,66.3,53.7,120,120,120s120-53.7,120-120s-53.7-120-120-120S50.3,103.7,50.3,170z
	 M60.8,170c0-60.5,49-109.5,109.5-109.5s109.5,49,109.5,109.5s-49,109.5-109.5,109.5S60.8,230.5,60.8,170z"/>
<path id="circle-bg" class="st1" d="M60.8,170c0-60.5,49-109.5,109.5-109.5s109.5,49,109.5,109.5s-49,109.5-109.5,109.5
	S60.8,230.5,60.8,170z"/>
<g id="about">
	<path class="st0" d="M112.9,222.1l3.2,12.4h-6.5L112.9,222.1z M119.6,247.3h7.5l-10.9-34.5h-6.4L99,247.3h7.4l1.9-6.8h9.5
		L119.6,247.3z"/>
	<path class="st0" d="M138.7,218h3.7c1.4,0,2.5,0.4,3.1,1.1c0.6,0.7,0.9,1.9,0.9,3.5c0,3-1.4,4.4-4.1,4.4h-3.6L138.7,218L138.7,218z
		 M143.6,232.3c2.3,0.1,3.4,1.8,3.4,5c0,1.5-0.3,2.7-1,3.5c-0.6,0.8-1.6,1.2-2.8,1.2h-4.5v-9.8h4.9V232.3z M143.1,247.3
		c3.5,0,6.2-0.9,8-2.6c1.9-1.7,2.8-4.3,2.8-7.6c0-2-0.4-3.6-1.3-5c-0.8-1.3-2-2.2-3.6-2.7c1.3-0.6,2.4-1.5,3.2-2.8s1.2-2.8,1.2-4.5
		c0-3.1-0.9-5.4-2.8-7c-1.9-1.6-4.6-2.4-8.2-2.4h-10.7v34.5h11.4V247.3z"/>
	<path class="st0" d="M177.6,233.6c0,3.2-0.5,5.5-1.4,7s-2.2,2.2-4.1,2.2c-1.9,0-3.3-0.8-4.2-2.3s-1.4-3.9-1.4-7.1v-6.6
		c0-3.2,0.5-5.6,1.4-7.1c0.9-1.6,2.3-2.4,4.1-2.4c1.9,0,3.3,0.8,4.1,2.4c0.9,1.6,1.3,4.1,1.3,7.4v6.5H177.6z M184.7,227.2
		c0-4.8-1.2-8.5-3.4-11.2c-2.2-2.6-5.3-4-9.1-4c-3.9,0-7,1.4-9.2,4.1c-2.2,2.7-3.3,6.5-3.3,11.3v6c0,4.6,1.1,8.3,3.4,10.8
		c2.2,2.6,5.3,3.9,9.2,3.9s6.9-1.3,9.2-3.9c2.2-2.6,3.3-6.2,3.3-11L184.7,227.2L184.7,227.2z"/>
	<path class="st0" d="M206.6,212.8v24.5c0,2-0.3,3.4-0.9,4.2c-0.6,0.9-1.8,1.3-3.4,1.3c-1.7,0-2.8-0.4-3.5-1.3
		c-0.6-0.8-0.9-2.3-0.9-4.3v-24.4h-7.1v23.9c0,3.7,1,6.5,2.9,8.4s4.8,2.9,8.5,2.9c3.6,0,6.4-0.9,8.4-2.9c1.9-1.9,2.9-4.7,3-8.3
		v-24.1h-7V212.8z"/>
	<polygon class="st0" points="242.8,212.8 218.8,212.8 218.8,218 227.2,218 227.2,247.3 234.2,247.3 234.2,218 242.8,218 	"/>
</g>
<path id="icon" class="st0" d="M170.8,75.9c-8,0-14.8,2.8-20.5,8.5c-5.7,5.6-8.5,12.5-8.5,20.4c0,8,2.8,14.8,8.5,20.5
	c5.6,5.7,12.5,8.5,20.5,8.5s14.8-2.8,20.4-8.5c5.7-5.7,8.5-12.5,8.5-20.5s-2.8-14.8-8.5-20.4C185.6,78.8,178.8,75.9,170.8,75.9z
	 M223.6,164.4c-0.2-2.5-0.5-5.3-1.1-8.2c-0.5-2.9-1.2-5.7-2-8.2s-1.9-5-3.2-7.4c-1.4-2.4-2.9-4.4-4.7-6.1c-1.8-1.7-3.9-3-6.4-4
	s-5.3-1.5-8.4-1.5c-0.5,0-1.5,0.6-3.2,1.6c-1.7,1.1-3.5,2.3-5.6,3.6s-4.8,2.5-8.1,3.6s-6.7,1.6-10.1,1.6s-6.7-0.5-10.1-1.6
	c-3.3-1.1-6-2.3-8.1-3.6s-4-2.5-5.6-3.6c-1.7-1.1-2.7-1.6-3.2-1.6c-3.1,0-5.9,0.5-8.4,1.5s-4.7,2.4-6.4,4c-1.8,1.7-3.3,3.7-4.7,6.1
	s-2.4,4.8-3.2,7.4c-0.8,2.5-1.5,5.2-2,8.2c-0.5,2.9-0.9,5.7-1.1,8.2s-0.3,5.1-0.3,7.8c0,6,1.8,10.8,5.5,14.3s8.5,5.2,14.6,5.2h65.8
	c6.1,0,11-1.7,14.6-5.2c3.7-3.5,5.5-8.3,5.5-14.3C223.9,169.5,223.8,166.9,223.6,164.4z"/>
</svg>
