<svg class="nav-icon" id="nav-about" xmlns="http://www.w3.org/2000/svg" viewBox="0 0 137.9 150.61">
<title>nav-about[new]</title><path d="M20.375,124.7l3.23,12.41h-6.47Zm6.64,25.16h7.48l-10.91-34.5h-6.4l-10.83,34.5h7.39l1.87-6.75h9.54Z" transform="translate(-6.355)" fill="#fff" fill-rule="evenodd"/><path d="M44.615,120.61h3.72a3.98,3.98,0,0,1,3.09,1.06,5.1906,5.1906,0,0,1,.95,3.51q0,4.425-4.11,4.43h-3.65Zm4.93,14.25q3.375.135,3.38,5.04a5.4207,5.4207,0,0,1-.98,3.48,3.4452,3.4452,0,0,1-2.85,1.23h-4.48v-9.75Zm-.45,15c3.51,0,6.18-.86,8.03-2.57s2.78-4.25,2.78-7.63a9.1326,9.1326,0,0,0-1.27-4.97,6.1416,6.1416,0,0,0-3.58-2.68,6.776,6.776,0,0,0,3.17-2.75,8.39,8.39,0,0,0,1.17-4.51c0-3.07-.95-5.41-2.82-7-1.88-1.6-4.63-2.39-8.24-2.39H37.625v34.5Z" transform="translate(-6.355)" fill="#fff" fill-rule="evenodd"/><path d="M82.085,136.15c-.02,3.15-.46,5.47-1.35,6.97a4.4114,4.4114,0,0,1-4.07,2.24,4.521,4.521,0,0,1-4.19-2.3q-1.365-2.28-1.36-7.14v-6.57c.03-3.19.5-5.57,1.39-7.14a4.7552,4.7552,0,0,1,8.25.08q1.335,2.445,1.33,7.43Zm7.04-6.38c-.04-4.79-1.16-8.52-3.39-11.18a11.2881,11.2881,0,0,0-9.12-3.99,11.2392,11.2392,0,0,0-9.19,4.06q-3.3,4.065-3.3,11.28v5.98q.03,6.975,3.37,10.83a11.47,11.47,0,0,0,9.17,3.86,11.3328,11.3328,0,0,0,9.15-3.89q3.315-3.9,3.31-10.96Z" transform="translate(-6.355)" fill="#fff" fill-rule="evenodd"/><path d="M109.555,115.36v24.51a7.59,7.59,0,0,1-.95,4.21c-.62.86-1.77,1.28-3.44,1.28-1.66,0-2.81-.42-3.44-1.29a7.4056,7.4056,0,0,1-.95-4.31v-24.4h-7.06v23.9c0,3.68.97,6.5,2.94,8.44,1.96,1.95,4.8,2.91,8.51,2.91,3.66,0,6.46-.95,8.41-2.87,1.94-1.92,2.94-4.69,2.97-8.31V115.36Z" transform="translate(-6.355)" fill="#fff" fill-rule="evenodd"/><polygon points="137.9 115.36 113.88 115.36 113.88 120.61 122.31 120.61 122.31 149.86 129.33 149.86 129.33 120.61 137.9 120.61 137.9 115.36" fill="#fff" fill-rule="evenodd"/><path d="M75.435,0a24.041,24.041,0,0,0-17.62,7.3,24.0023,24.0023,0,0,0-7.3,17.62,24.0023,24.0023,0,0,0,7.3,17.62,24.9268,24.9268,0,0,0,35.23,0,24.0116,24.0116,0,0,0,7.31-17.62A24.0116,24.0116,0,0,0,93.045,7.3,24.0347,24.0347,0,0,0,75.435,0Zm45.45,76.14a66.9206,66.9206,0,0,0-.91-7.07,56.65,56.65,0,0,0-1.73-7.04,33.3476,33.3476,0,0,0-2.79-6.33,23.0594,23.0594,0,0,0-4.02-5.25,16.7934,16.7934,0,0,0-5.54-3.47,19.3786,19.3786,0,0,0-7.23-1.3,8.0079,8.0079,0,0,0-2.73,1.39c-1.43.94-3.04,1.97-4.83,3.12a30.96,30.96,0,0,1-7.01,3.11,27.6718,27.6718,0,0,1-17.32,0,30.1714,30.1714,0,0,1-7.01-3.11c-1.8-1.15-3.4-2.18-4.83-3.12a8.19,8.19,0,0,0-2.73-1.39,19.3415,19.3415,0,0,0-7.23,1.3,16.84,16.84,0,0,0-5.55,3.47,22.8092,22.8092,0,0,0-4.03,5.25,33.3476,33.3476,0,0,0-2.79,6.33,54.9925,54.9925,0,0,0-1.71,7.04,64.3978,64.3978,0,0,0-.91,7.07c-.16,2.18-.23,4.42-.23,6.71,0,5.2,1.57,9.29,4.74,12.3q4.725,4.5,12.59,4.51h56.7q7.845,0,12.59-4.51c3.15-3.01,4.73-7.1,4.73-12.3C121.105,80.56,121.025,78.32,120.885,76.14Z" transform="translate(-6.355)" fill="#fff" fill-rule="evenodd"/>
</svg>