<svg class="nav-icon" id="nav-resume" xmlns="http://www.w3.org/2000/svg" viewBox="0 0 150.1494 148.896">
<title>nav-resume[new]</title><path d="M116.3771,42.3244V93.6637a6.1352,6.1352,0,0,1-6.1612,6.1607H40.3946a6.1352,6.1352,0,0,1-6.1606-6.1607V7.4137A5.9409,5.9409,0,0,1,36.0309,3.05a5.9423,5.9423,0,0,1,4.3637-1.7968H75.3053V36.1637a6.1352,6.1352,0,0,0,6.1606,6.1607ZM99.9484,64.9137V60.8063a1.9767,1.9767,0,0,0-2.0538-2.0532H52.7159a1.9766,1.9766,0,0,0-2.0532,2.0532v4.1074a1.9766,1.9766,0,0,0,2.0532,2.0532H97.8946a1.9767,1.9767,0,0,0,2.0538-2.0532Zm0,16.4282V77.235a1.9775,1.9775,0,0,0-2.0538-2.0537H52.7159a1.9774,1.9774,0,0,0-2.0532,2.0537v4.1069a1.9774,1.9774,0,0,0,2.0532,2.0537H97.8946a1.9775,1.9775,0,0,0,2.0538-2.0537ZM116.1842,34.11H83.52V1.4454a15.5959,15.5959,0,0,1,8.4712,4.1714l20.022,20.022A15.5966,15.5966,0,0,1,116.1842,34.11Z" transform="translate(-0.7496 -1.2531)" fill="#fff"/><path d="M.75,117.0275a47.635,47.635,0,0,1,8.4561-.6856c4.1655,0,7.0815.7349,9.081,2.5967a9.0726,9.0726,0,0,1,2.583,6.9082,8.7352,8.7352,0,0,1-4.9575,8.1333v.147c1.958.9311,3.041,3.1357,3.7491,6.1738.875,3.7237,1.75,8.0352,2.2915,9.3091H15.4542a46.824,46.824,0,0,1-1.958-7.6924c-.7495-4.1157-1.9575-5.2427-4.54-5.2915H7.04V149.61H.75Zm6.29,14.209H9.5392c3.1655,0,5.04-1.8619,5.04-4.7525,0-3.0381-1.7495-4.5566-4.6655-4.6059a13.5157,13.5157,0,0,0-2.874.2451Z" transform="translate(-0.7496 -1.2531)" fill="#fff"/><path d="M41.985,135.6461H31.6539v7.8394H43.193V149.61H25.2809V116.5866H42.61v6.1245H31.6539V129.57H41.985Z" transform="translate(-0.7496 -1.2531)" fill="#fff"/><path d="M47.5631,141.9176a14.3165,14.3165,0,0,0,7.04,2.0576c2.9161,0,4.4571-1.4209,4.4571-3.5766,0-2.0576-1.333-3.2334-4.7071-4.6543-4.6655-1.9112-7.7065-4.9488-7.7065-9.7505,0-5.6343,3.999-9.9458,10.6226-9.9458a15.0342,15.0342,0,0,1,7.165,1.6655L63.0177,123.74a11.7588,11.7588,0,0,0-5.8735-1.5674c-2.75,0-4.0826,1.47-4.0826,3.1846,0,2.1069,1.583,3.0376,5.2071,4.6543,4.9575,2.1562,7.29,5.1938,7.29,9.8486,0,5.5361-3.624,10.24-11.3306,10.24a16.1178,16.1178,0,0,1-7.9565-2.0087Z" transform="translate(-0.7496 -1.2531)" fill="#fff"/><path d="M76.0109,116.5866v19.0107c0,5.6836,1.833,8.5742,5.082,8.5742,3.3325,0,5.1655-2.7436,5.1655-8.5742V116.5866H92.59v18.5205c0,10.1914-4.3736,15.042-11.7051,15.042-7.0816,0-11.2476-4.606-11.2476-15.14V116.5866Z" transform="translate(-0.7496 -1.2531)" fill="#fff"/><path d="M121.6617,136.9689c-.125-3.9688-.25-8.77-.25-13.5718h-.125c-.875,4.2139-2.041,8.9175-3.1245,12.7881l-3.4155,12.8857H109.79l-2.9995-12.788c-.9165-3.8707-1.8746-8.5743-2.5411-12.8858h-.083c-.167,4.4585-.292,9.5542-.5,13.67l-.5,12.543H97.2926l1.791-33.0234H107.54l2.749,11.0244c.875,3.8213,1.75,7.937,2.3745,11.8076h.125c.7915-3.8213,1.7495-8.1821,2.666-11.8569l2.9995-10.9751h8.29l1.541,33.0234h-6.2066Z" transform="translate(-0.7496 -1.2531)" fill="#fff"/><path d="M149.691,135.6461H139.36v7.8394h11.539V149.61H132.9869V116.5866H150.316v6.1245H139.36V129.57h10.331Z" transform="translate(-0.7496 -1.2531)" fill="#fff"/>
</svg>