<svg id="Layer_1" data-name="Layer 1" xmlns="http://www.w3.org/2000/svg" viewBox="0 0 338.0713 195.78"><title>nav-arrow[new]</title><path d="M241.59,266.125a6.195,6.195,0,0,0,3.83-1.6l90.91-90.85a6.0448,6.0448,0,0,0-.02-8.51l-90.88-90.87a6.2342,6.2342,0,0,0-3.84-1.59h-22.5c-2.08,0-2.57,1.18-1.1,2.65l89.81,89.81a6.0265,6.0265,0,0,1,.02,8.51l-89.85,89.78c-1.45,1.47-.96,2.67,1.12,2.67Z" transform="translate(0 -71.145)" fill="#fff" fill-rule="evenodd"/><path d="M0,82.395v173.28a11.2541,11.2541,0,0,0,11.25,11.25H171.03a20.8335,20.8335,0,0,0,12.8-5.3l88.82-89.55a3.7784,3.7784,0,0,0-.01-5.32l-90.31-90.3a20.7874,20.7874,0,0,0-12.8-5.31H11.25A11.2541,11.2541,0,0,0,0,82.395Zm23.25,171.4a9.7476,9.7476,0,0,1-9.75-9.74V94.015a9.7476,9.7476,0,0,1,9.75-9.74H164.14a18.0706,18.0706,0,0,1,11.1,4.59l77.89,77.84a3.7693,3.7693,0,0,1,.02,5.32l-76.61,77.18a18.0133,18.0133,0,0,1-11.1,4.59Z" transform="translate(0 -71.145)" fill="#fff" fill-rule="evenodd"/></svg>