<svg id="npm-logo" xmlns="http://www.w3.org/2000/svg" viewBox="0 0 138 54"><title>npm-logo[svg]</title><path id="border" d="M68.91,15.5H61.49V30.83h7.42ZM138,0H0V46.34H38.34V54H68.91V46.34H138Zm-7.6,7.84V38.5h-7.6V15.33h-7.77V38.5h-7.6V15.33H99.66V38.5H84.46V7.84Zm-53.71,0V38.5H61.14c-.17,7.49,0,7.66,0,7.84H46.12V7.84Zm-38.52,0V38.5h-7.6V15.33h-7.6V38.5H7.77V7.84Z" fill="#626262" fill-rule="evenodd" opacity="0.6"/><path id="npm" d="M68.91,15.5V30.83H61.49V15.5ZM130.4,7.84V38.5h-7.6V15.33h-7.77V38.5h-7.6V15.33H99.66V38.5H84.46V7.84Zm-53.71,0V38.5H61.14c-.17,7.49,0,7.66,0,7.84H46.12V7.84Zm-38.52,0V38.5h-7.6V15.33h-7.6V38.5H7.77V7.84Z" fill="#fff" fill-rule="evenodd" opacity="0.6"/></svg>