<svg id="react-logo" xmlns="http://www.w3.org/2000/svg" viewBox="0 0 184.92 61"><title>react-logo[svg]</title><path id="logo" d="M38.34,44.79c-.24.23-3.48,4.32-3.8,4.32s-3.09-3.22-3.8-4.32Zm14.18,5.58c0,2.21.08,4.81-1.98,6.93a2.2238,2.2238,0,0,1-1.98.55c-3.8,0-8.32-3.3-11.72-6.45,1.26-1.5,2.61-2.99,3.8-4.49.63-.79,1.03-2.05,1.9-2.44,1.82-.79,3.96-.63,5.94-.94.95-.16,1.98-.4,3.01-.63A25.9689,25.9689,0,0,1,52.52,50.37ZM19.33,43.29c1.74.39,3.72.71,5.62.94.4.08,1.03-.23,1.43.16a69.704,69.704,0,0,1,5.78,7.01c0,.55-3.8,3.15-5.07,4.01-1.5,1.02-4.75,2.6-6.57,2.6a7.8318,7.8318,0,0,1-1.19-.24,1.8564,1.8564,0,0,1-.87-.47c-1.35-1.26-1.59-3.07-1.82-4.56,0-.24-.08-.56-.08-.71V48.72a35.65,35.65,0,0,1,.95-5.82C18.06,43.05,18.62,43.13,19.33,43.29ZM24,40.85c-1.82-.16-3.8-.71-5.62-.94,0-.08-.08-.16-.08-.24l1.82-5.2Zm26.78-1.02-4.99,1.02h-.71L48.8,34.4A54.3131,54.3131,0,0,1,50.78,39.83Zm-9.9-9.37a6.3738,6.3738,0,0,1-6.42,6.38,7.6651,7.6651,0,0,1-2.85-.71,6.7759,6.7759,0,0,1-3.49-4.8V29.67c.87-3.85,3.49-5.51,6.34-5.51A6.3042,6.3042,0,0,1,40.88,30.46Zm24.87-.79a2.9816,2.9816,0,0,1,.24.79c0,3.46-7.13,6.69-8.64,7.24-1.1.47-2.29.87-3.48,1.26-.24-.55-.4-1.26-.63-1.81-.72-2.2-2.54-6.53-2.54-6.69,0-.24.71-1.73,1.03-2.6.71-1.89,1.43-3.85,2.06-5.82C58.23,23.38,64.17,25.82,65.75,29.67ZM15.69,23.85c.71,2.2,2.61,6.45,2.61,6.69,0,.16-.71,1.65-1.03,2.44-.71,1.97-1.43,4.01-2.14,5.98-4.2-1.42-9.35-3.62-11.49-6.69a7.32,7.32,0,0,1-.63-1.81c0-2.12,3.17-4.41,5.23-5.59a36.43,36.43,0,0,1,6.89-2.83C15.37,22.59,15.45,23.22,15.69,23.85Zm33.19,2.68L45,20.15a21.6742,21.6742,0,0,1,5.7,1.1ZM24,20.15,20.2,26.6a28.0252,28.0252,0,0,1-1.9-5.43l5.62-1.1Zm14.74-.63h1.74a.87.87,0,0,0,.4.08c.55.86,1.19,1.81,1.74,2.67a34.151,34.151,0,0,1,2.22,3.7c.79,1.42,2.37,4.33,2.37,4.49A46.5188,46.5188,0,0,1,45,34.71c-.64,1.26-1.51,2.52-2.3,3.86a26.9532,26.9532,0,0,1-1.74,2.67c-.4.4-.95.24-1.43.32l-5.07.16-5.07-.16c-.32-.08-.79,0-1.03-.16-.71-.31-1.27-1.49-1.66-2.12-.72-1.26-1.59-2.44-2.3-3.7-.95-1.66-2.61-4.88-2.61-5.04,0-.24,1.66-3.23,2.53-4.88a49.5,49.5,0,0,1,3.57-5.75c.07-.23.47-.39.71-.39h1.66a8.209,8.209,0,0,1,1.19-.16h6.1C37.79,19.36,38.5,19.52,38.74,19.52Zm-.48-3.46-.39.08H34.46l-3.8.15a36.6558,36.6558,0,0,1,3.8-4.4C35.01,11.89,37.39,15.03,38.26,16.06ZM23.53,3.7a19.7828,19.7828,0,0,1,3.64,1.89c.24.16,4.99,3.62,4.99,3.93,0,.24-2.06,2.29-2.93,3.39-.95,1.1-1.74,2.44-2.69,3.46-.48.55-1.59.24-2.3.4-1.35.23-2.85.39-4.2.7-.79.16-1.66.48-2.61.63a62.3167,62.3167,0,0,1-.95-6.21V9.37c.24-2.44.47-6.3,3.96-6.3A13.246,13.246,0,0,1,23.53,3.7Zm28.91,6.93a27.1108,27.1108,0,0,1-1.03,7.47c-.79-.23-1.66-.47-2.45-.63l-1.27-.23-2.93-.47c-.71-.08-1.74.07-2.3-.4a13.1046,13.1046,0,0,1-1.58-1.97c-1.27-1.65-4.04-4.64-4.04-4.8,0-.55,4.2-3.54,5.3-4.25,1.43-.94,4.44-2.36,6.26-2.36C52.28,2.99,52.44,8.82,52.44,10.63ZM23.05.31a13.3,13.3,0,0,1,2.06.71,18.3579,18.3579,0,0,1,2.22,1.11C30.02,3.62,34.3,7.4,34.46,7.4c.32,0,7.53-7.4,14.02-7.4,6.5,0,7.05,7.16,7.05,10.55a38.1565,38.1565,0,0,1-.47,5.35c-.08.94-.56,2.68-.56,2.91,0,.16.16.24.32.24C58.46,20.07,69,24.16,69,30.46c0,4.72-6.1,8.27-10.3,10-1.27.47-2.61,1.02-3.88,1.41-.08.08-.24,0-.24.16,0,.24.16.79.24,1.26a50.2494,50.2494,0,0,1,.87,7.16c0,3.54-1.03,10.55-7.05,10.55-2.69,0-5.78-1.42-8.4-3.07a16.5436,16.5436,0,0,1-2.53-1.81c-1.11-.79-2.93-2.52-3.09-2.52a19.5385,19.5385,0,0,0-2.38,1.89c-1.19.94-2.37,1.81-3.56,2.6A15.8933,15.8933,0,0,1,20.52,61a5.985,5.985,0,0,1-2.93-.63c-3.01-1.18-4.12-6.45-4.12-8.74V49.27a16.3455,16.3455,0,0,0,.16-1.97c.07-1.18.87-5.11.87-5.11a.293.293,0,0,0-.32-.32C10.46,40.69,0,36.76,0,30.46c0-6.14,10.46-10.31,14.02-11.33.08,0,.4-.08.4-.32,0-.16-.24-.86-.32-1.34-.32-1.81-.71-5.27-.71-5.43V9.13C13.94,3.23,15.92,0,20.52,0A13.0673,13.0673,0,0,1,23.05.31Z" fill="#b7b7b7" fill-rule="evenodd" opacity="0.6"/><g id="react" opacity="0.6"><path d="M84.42,30.13V19.05a15.7769,15.7769,0,0,1,3.51-.29c3.6,0,6.63,1.43,6.63,5.6,0,3.45-2.6,5.77-6.76,5.77Zm9.23,1.93a8.5575,8.5575,0,0,0,5.79-8.2,8.1561,8.1561,0,0,0-2.57-6.32c-2.01-1.8-5.04-2.56-9.38-2.56a45.7092,45.7092,0,0,0-7.91.67V46.94h4.84V33.87h3.03c3.51,0,5.12,1.57,6.03,5.69a41.9975,41.9975,0,0,0,2.05,7.38h5.04c-.63-1.17-1.43-4.36-2.39-8.39-.76-3.27-2.1-5.5-4.53-6.4Z" fill="#fff" fill-rule="evenodd"/><path d="M109.39,33.13c.23-2.76,1.61-6.39,4.86-6.39,3.41,0,4.45,3.54,4.41,6.39Zm11.95,10.01a13.6859,13.6859,0,0,1-5.59,1.12c-3.33,0-6.28-2.03-6.4-7.39h13.87a17.5949,17.5949,0,0,0,.12-2.21c0-5.93-2.64-11.66-8.78-11.66-6.05,0-9.91,5.81-9.91,13.01,0,7.3,4.03,11.99,10.45,11.99a17.549,17.549,0,0,0,7.05-1.39Z" fill="#fff" fill-rule="evenodd"/><path d="M140.69,38.88c0,3.18-2.19,5.38-4.85,5.38-1.82,0-3.42-1.24-3.42-4.04,0-4.5,4.43-5.28,8.27-5.28Zm4.75-6.23c0-4.96-1.89-9.65-8.72-9.65a14.006,14.006,0,0,0-7.5,2.02l1.01,3.36a10.5146,10.5146,0,0,1,5.65-1.64c4.68,0,4.68,3.55,4.68,5.32-7.98,0-12.98,2.51-12.98,8.71,0,3.89,2.48,7.23,6.82,7.23a7.7806,7.7806,0,0,0,6.5-3.3h.13l.33,2.24h4.41a33.9351,33.9351,0,0,1-.33-5.68Z" fill="#fff" fill-rule="evenodd"/><path d="M167.82,43.27a9.93,9.93,0,0,1-4.37.99c-4.03,0-7.01-3.23-7.01-8.66,0-4.85,2.52-8.8,7.05-8.8a8.5564,8.5564,0,0,1,4.16.99l.97-3.8a12.3364,12.3364,0,0,0-5.17-1.05c-7.43,0-11.89,5.39-11.89,12.88,0,7.72,4.3,12.18,10.97,12.18a15.3653,15.3653,0,0,0,5.96-1.13Z" fill="#fff" fill-rule="evenodd"/><path d="M174.58,24h-3.27v3.74h3.27V40.13c0,3.13.55,5.04,1.73,6.22A6.23,6.23,0,0,0,180.89,48a11.5776,11.5776,0,0,0,3.78-.51l-.17-3.53a7.0262,7.0262,0,0,1-2.14.3c-2.06,0-2.94-1.43-2.94-4.39V27.74h5.5V24h-5.5V18.29l-4.84,1.51Z" fill="#fff" fill-rule="evenodd"/></g></svg>