<svg id="redux-logo" xmlns="http://www.w3.org/2000/svg" viewBox="0 0 193 57"><title>redux-logo[svg]</title><path id="logo" d="M8.93,27.53c0,.97.48,2.19.48,2.68,0,.97-6.51,5.6-6.51,11.93a15.0538,15.0538,0,0,0,.72,4.14c1.93,6.34,7.72,7.31,11.82,7.31,7,0,14.47-3.65,20.75-11.45.72-.97,1.93-2.68,1.93-3.41,0-.49-.97-2.19-.97-3.17a3.6724,3.6724,0,0,1,3.86-3.89,4.0714,4.0714,0,0,1,1.69,7.79.8594.8594,0,0,1-.72.25,4.7875,4.7875,0,0,0-1.45,1.7C38.36,46.28,30.4,53.1,26.05,54.56,22.68,55.54,18.82,57,15.44,57,7,57,0,51.64,0,42.38c0-5.11,2.9-10.71,7.96-14.85Zm20.98-7.56a32.15,32.15,0,0,1,14,2.44c10.13,4.63,15.92,12.67,15.92,20.46C59.83,52.62,50.42,57,43.67,57c-2.42,0-7.24-.97-8.93-1.95.97-1.46,1.69-2.43,2.9-2.43.72,0,6.51,1.46,6.99,1.46,6.27,0,12.06-4.87,12.06-11.21a26.9167,26.9167,0,0,0-1.2-4.63c-1.21-4.14-5.79-8.77-9.65-10.96-1.69-.97-8.2-3.9-11.34-3.9H29.67a6.0613,6.0613,0,0,1-4.1,2.68c-2.65,0-3.86-2.68-3.86-4.14a3.9484,3.9484,0,0,1,4.1-4.14C27.74,17.78,27.5,18.76,29.91,19.97Zm15.2-1.7h-.72c-.72-.24-1.69-.73-2.65-.98-.25-1.46-.97-3.16-1.45-4.87C38.36,6.58,34.5,3.17,29.91,3.17a13.9646,13.9646,0,0,0-4.82.97c-8.2,3.41-9.65,11.45-9.65,17.78a42.7025,42.7025,0,0,0,1.45,9.5,14.06,14.06,0,0,0,2.41,5.12c.48.73,1.93.24,2.9.73a3.6233,3.6233,0,0,1,2.17,3.9,4.2041,4.2041,0,0,1-4.1,4.14c-2.66,0-3.86-2.68-3.86-4.14,0-.49.48-1.71.48-2.2,0-.48-4.59-9.25-4.59-13.15V18.27C13.27,8.04,20.27,0,29.43,0,38.12,0,43.67,8.04,45.11,18.27Z" fill="#b7b7b7" fill-rule="evenodd" opacity="0.6"/><path id="redux" d="M133.89,33.62V43.85c-2.41,1.7-2.17,1.94-4.1,1.94a3.4354,3.4354,0,0,1-3.62-3.65v-5.6c1.21-3.66,1.93-4.14,4.11-4.14C131.72,32.4,131.96,32.15,133.89,33.62Zm-23.64,1.46v.97h-8.2v-.73c.96-3.17,2.65-3.17,4.1-3.17S110.25,32.64,110.25,35.08Zm66.1-7.55c1.45,2.19,3.14,4.87,4.59,7.3,1.45-2.19,2.89-4.87,4.58-7.3h7.24l-7.24,10.96L193,50.67v.73h-7c-2.65-2.19-3.86-5.61-5.55-8.28-1.68,1.7-4.34,8.28-6.03,8.28h-6.27c2.41-4.14,5.07-8.53,7.72-12.67l-7.24-11.2Zm-24.36,0V42.38c0,2.44,1.45,3.9,3.37,3.9.97,0,2.66-.97,4.11-1.95V27.53h7.23V51.4h-4.82a5.2515,5.2515,0,0,1-1.93-2.44,10.158,10.158,0,0,1-7,2.68c-3.38,0-7.72-2.43-7.72-6.33V27.53ZM117.01,37.76c0,.48,0,2.92-1.69,2.92H101.57a5.4434,5.4434,0,0,0,5.54,5.6c2.18,0,4.83-1.95,6.28-1.95.72,0,3.13,1.95,3.13,3.17,0,1.46-5.3,3.65-6.03,3.65a31.4426,31.4426,0,0,1-3.86.49c-3.86,0-9.17-1.22-11.34-7.06a24.6269,24.6269,0,0,1-.72-2.68V36.05c2.41-7.79,6.27-9.01,11.58-9.01C112.91,27.04,117.01,31.18,117.01,37.76ZM81.3,23.63c3.62.97,3.86,2.43,3.86,4.38,0,2.68-1.69,5.12-4.82,5.12H76.72v-9.5Zm2.66-5.85c6.51.98,9.16,4.87,9.16,9.75a10.633,10.633,0,0,1-6.27,9.5c3.38,3.89,6.03,9.01,9.17,14.37H88.54c-.48-.49-2.17-1.22-2.41-1.71-.73-1.46-5.31-10.96-7.48-10.96H76.23V51.4H69V17.78Zm57.41-.97V51.4h-5.06c-1.69-.73-1.21-1.95-1.93-2.68a10.7485,10.7485,0,0,1-7.24,2.92c-3.38,0-5.31-1.46-7.72-5.6a15.08,15.08,0,0,1-.72-2.68v-7.8c1.68-6.33,5.3-8.77,9.89-8.77,2.89,0,2.65.74,5.55,1.47V16.81Z" fill="#fff" fill-rule="evenodd" opacity="0.6"/></svg>