<svg id="webpack-logo" xmlns="http://www.w3.org/2000/svg" viewBox="0 0 244 60"><title>webpack-logo[svg]</title><path id="webpack" d="M193.56,34.06c0,2.26-2.51,2.93-3.66,2.93-2.05,0-3.65-1.13-3.65-3.16,0-1.8,1.83-2.7,3.65-2.7C191.73,31.13,193.56,31.58,193.56,34.06Zm-21-4.29c0,3.16-1.83,6.55-5.71,6.55-4.56,0-5.48-4.06-5.48-6.55,0-3.38,1.37-6.09,5.48-6.09S172.56,27.07,172.56,29.77ZM146.54,30c0,3.61-2.29,6.32-5.71,6.32-4.11,0-5.48-3.39-5.48-6.32,0-3.61,1.37-6.32,5.48-6.32S146.54,26.84,146.54,30Zm-26.02-3.38v.67h-9.13v-.9c.68-2.48,2.51-3.16,4.56-3.16A4.438,4.438,0,0,1,120.52,26.62Zm-45.2-7.9L79.2,33.61a.2253.2253,0,0,0,.23-.23c1.37-4.73,2.74-9.7,4.11-14.66h5.71l4.33,15.11,4.11-15.11h6.62L97.23,41.28H90.84L86.51,27.29,82.17,41.28H75.78L68.93,19.85V18.72Zm141.52-.45c1.14.23,4.33,1.35,4.33,2.48a42.6538,42.6538,0,0,1-1.36,4.29s0,.22-.46.22c-.69,0-3.2-1.8-5.02-1.8-4.11,0-6.39,2.48-6.39,6.31,0,4.06,2.74,6.77,6.39,6.77,1.82,0,2.51-.68,5.48-2.03.22,1.58,1.36,4.06,1.36,4.51,0,.68-.45.68-.68.68a7.8686,7.8686,0,0,1-3.42,1.58,22.3738,22.3738,0,0,1-3.2.45,22.2655,22.2655,0,0,1-3.19-.45c-3.88-.23-8.68-5.87-8.68-8.8V27.52c2.28-7.67,6.62-9.25,11.87-9.25A13.3653,13.3653,0,0,1,216.84,18.27Zm-23.28,0c2.51,0,6.16,3.84,6.16,6.32V41.28H194.7c-.46-.45-.46-.9-.69-1.36a7.63,7.63,0,0,1-5.47,1.81c-.69,0-1.15-.23-1.83-.23-1.6,0-6.62-2.93-6.62-5.18V32.26c1.37-4.29,5.71-5.64,8.67-5.64a23.5834,23.5834,0,0,1,5.02,1.12v-1.8c-.45-2.26-2.73-2.71-4.33-2.71a12.7719,12.7719,0,0,0-5.71,1.58c-.91-1.13-1.6-2.48-2.51-3.83,4.34-2.93,5.02-2.71,9.13-2.71ZM178.95,30c0,5.86-3.65,11.73-10.96,11.73-2.51,0-3.65-.45-6.85-2.48V49.4h-5.7V18.5h5.48a6.4254,6.4254,0,0,0,.22,2.03c3.43-2.71,3.89-2.26,6.62-2.26C175.3,18.27,178.95,23.91,178.95,30ZM118.92,18.27c3.65,0,7.99,6.32,7.99,9.47v3.61H110.93v1.13c.46,3.16,3.88,4.06,5.71,4.06,3.42,0,5.02-2.48,5.7-2.48.46,0,2.51,1.58,3.88,2.71-2.74,4.28-6.84,4.96-9.81,4.96a10.648,10.648,0,0,1-6.85-2.03c-1.6-1.13-4.79-5.41-4.79-6.99V27.29c2.28-7.21,5.7-9.02,11.18-9.02Zm110.7-8.12.23,17.14c2.28-2.7,4.79-5.86,7.07-8.79h6.4v.67l-7.77,9.7L244,40.83v.45h-6.85l-7.07-10.83h-.46V41.28h-5.93V10.15Zm-94.27,0V20.3a11.09,11.09,0,0,1,6.62-2.25c7.53,0,10.96,6.09,10.96,11.95s-4.34,11.73-11.19,11.73c-2.74,0-2.28-.45-6.84-2.26v1.81h-5.48V10.15Z" fill="#fff" fill-rule="evenodd" opacity="0.6"/><g id="logo" opacity="0.6"><polygon points="12.1 23.23 26.02 31.35 26.02 46.47 25.34 46.47 11.41 38.8 11.41 23.23 12.1 23.23" fill="#8a8a8a" fill-rule="evenodd"/><polygon points="43.37 23.01 43.37 38.57 28.76 46.47 28.76 31.13 42.68 23.01 43.37 23.01" fill="#8a8a8a" fill-rule="evenodd"/><path d="M41.77,20.3,27.16,28.87,12.78,20.75v-.67l14.38-7.45C31.5,14.21,37.2,17.82,41.77,20.3Z" fill="#8a8a8a" fill-rule="evenodd"/><path d="M12.33,41.95c4.56,2.71,9.35,4.97,13.92,8.13v9.69a.803.803,0,0,1-.46.23L2.05,46.92v-.68c.69-.68,7.54-4.51,8.45-4.51A2.7457,2.7457,0,0,1,12.33,41.95Z" fill="#fff" fill-rule="evenodd"/><path d="M52.5,46.24c0,.45-.46.68-.92.9C44.05,51.43,36.52,55.49,28.76,60V49.62l15.06-8.34Z" fill="#fff" fill-rule="evenodd"/><path d="M54.78,16.47V44.21s.23.23-.23.23c-.68,0-5.25-2.71-8.22-4.52V20.98l7.77-4.51Z" fill="#fff" fill-rule="evenodd"/><path d="M8.45,20.98V39.47A81.9906,81.9906,0,0,1,0,44.44V16.47C2.74,17.82,5.71,19.4,8.45,20.98Z" fill="#fff" fill-rule="evenodd"/><path d="M53.41,13.76c-2.51,2.03-6.16,3.61-8.67,5.19l-15.98-8.8V.23Z" fill="#fff" fill-rule="evenodd"/><path d="M26.25,9.47c-.23.45-.46.91-.69.91-5.47,2.93-10.72,5.63-15.97,8.57L1.37,14.21a1.1619,1.1619,0,0,1,.91-1.13C8.45,9.47,15.06,5.86,21.46,2.26,22.6,1.58,24.42.9,26.25,0Z" fill="#fff" fill-rule="evenodd"/></g></svg>