<svg id="woocommerce-logo" xmlns="http://www.w3.org/2000/svg" viewBox="0 0 266.9989 53.0032"><title>woocommerce-logo[svg]</title><path id="bubble" d="M79.5689,20.8632c0-1.18-.74-5.88-3.26-5.88-3.42,0-5.79,6.61-5.49,7.64v2.93c0,.74,1.03,4.41,3.11,4.41C77.6389,29.9632,79.5689,23.9432,79.5689,20.8632Zm-23.15,0c0-1.18-.89-5.88-3.41-5.88-4.01,0-5.49,7.49-5.49,9.25,0,.88.59,5.73,3.26,5.73C54.9389,29.9632,56.4189,22.7632,56.4189,20.8632Zm25.97-20.85h-74.5c-3.41-.29-8.31,4.26-7.86,7.93v28.47a8.5738,8.5738,0,0,0,7.42,7.93h35.61l16.03,8.66-3.56-8.51.15-.15h27.16c3.41,0,7.42-4.26,7.56-7.78V7.6532C90.3989,4.1232,86.5489-.1268,82.3889.0132Zm3.27,20.41c0,4.99-2.82,15.85-11.43,15.85-7.42,0-9.65-6.75-9.65-11.74,0-5,2.97-15.71,11.58-15.71C83.7289,8.8232,85.6589,15.8732,85.6589,20.4232Zm-23.16.14c0,4.85-2.96,15.71-11.42,15.71a9.2374,9.2374,0,0,1-9.05-6.9,20.7342,20.7342,0,0,1-.6-3.08v-3.53c.6-6.45,4.6-13.94,11.43-13.94C60.2789,8.8232,62.4989,15.8732,62.4989,20.5632Zm-20.62-12.62c0,1.32-1.49,3.67-1.78,4.84a51.4919,51.4919,0,0,0-1.78,7.34,92.0553,92.0553,0,0,0-1.49,12.92,14.9681,14.9681,0,0,0,.15,3.81c0,1.33-.74,3.38-2.67,3.38-1.19,0-2.67-1.17-3.86-2.64-3.71-4.7-5.49-9.84-6.97-14.24-1.19,2.2-2.38,4.4-3.42,6.61-.29.44-4.3,10.27-7.57,10.27-2.22,0-2.96-3.82-3.11-4.26-.45-1.9-1.19-3.96-1.63-5.87-.45-2.2-3.71-18.2-3.71-20.55a2.7927,2.7927,0,0,1,3.11-3.08c.74,0,1.49-.29,2.23,1.03.89,1.17.74,2.49.89,3.96,1.04,5.43,1.78,11.3,3.56,17.03,1.48-2.79,2.97-5.87,4.45-8.51a28.9217,28.9217,0,0,1,1.93-3.67c1.04-1.62,1.93-5.29,4.6-5.29a2.17,2.17,0,0,1,2.23,1.47c.89,2.05,1.04,4.4,1.63,6.6a26.8018,26.8018,0,0,0,2.52,7.34c0-.88,2.08-21.57,7.57-21.57A3.0151,3.0151,0,0,1,41.8789,7.9432Z" fill="#ccc" fill-rule="evenodd" opacity="0.5"/><path id="woo" d="M79.5689,20.8632c0,3.08-1.93,9.1-5.64,9.1-2.08,0-3.11-3.67-3.11-4.41v-2.93c-.3-1.03,2.07-7.64,5.49-7.64C78.8289,14.9832,79.5689,19.6832,79.5689,20.8632Zm-23.15,0c0,1.9-1.48,9.1-5.64,9.1-2.67,0-3.26-4.85-3.26-5.73,0-1.76,1.48-9.25,5.49-9.25C55.5289,14.9832,56.4189,19.6832,56.4189,20.8632Zm29.24-.44c0,4.99-2.82,15.85-11.43,15.85-7.42,0-9.65-6.75-9.65-11.74,0-5,2.97-15.71,11.58-15.71C83.7289,8.8232,85.6589,15.8732,85.6589,20.4232Zm-23.16.14c0,4.85-2.96,15.71-11.42,15.71a9.2374,9.2374,0,0,1-9.05-6.9,20.7342,20.7342,0,0,1-.6-3.08v-3.53c.6-6.45,4.6-13.94,11.43-13.94C60.2789,8.8232,62.4989,15.8732,62.4989,20.5632Zm-20.62-12.62c0,1.32-1.49,3.67-1.78,4.84a51.4919,51.4919,0,0,0-1.78,7.34,92.0553,92.0553,0,0,0-1.49,12.92,14.9681,14.9681,0,0,0,.15,3.81c0,1.33-.74,3.38-2.67,3.38-1.19,0-2.67-1.17-3.86-2.64-3.71-4.7-5.49-9.84-6.97-14.24-1.19,2.2-2.38,4.4-3.42,6.61-.29.44-4.3,10.27-7.57,10.27-2.22,0-2.96-3.82-3.11-4.26-.45-1.9-1.19-3.96-1.63-5.87-.45-2.2-3.71-18.2-3.71-20.55a2.7927,2.7927,0,0,1,3.11-3.08c.74,0,1.49-.29,2.23,1.03.89,1.17.74,2.49.89,3.96,1.04,5.43,1.78,11.3,3.56,17.03,1.48-2.79,2.97-5.87,4.45-8.51a28.9217,28.9217,0,0,1,1.93-3.67c1.04-1.62,1.93-5.29,4.6-5.29a2.17,2.17,0,0,1,2.23,1.47c.89,2.05,1.04,4.4,1.63,6.6a26.8018,26.8018,0,0,0,2.52,7.34c0-.88,2.08-21.57,7.57-21.57A3.0151,3.0151,0,0,1,41.8789,7.9432Z" fill="#fff" fill-rule="evenodd" opacity="0.6"/><path id="commerce" d="M129.4289,22.1832c0,2.2.15,7.63-4,7.63-3.42,0-3.57-4.7-3.57-6.17v-2.64c0-1.76.45-6.02,3.71-6.02C129.2789,14.9832,129.4289,20.7132,129.4289,22.1832Zm93.94-7.34c2.52.29,3.56,1.32,3.56,3.08,0,1.91-2.37,2.79-3.71,2.79h-.74v-5.87Zm43.63-4.7v5.14h-6.97a28.4753,28.4753,0,0,1,0,4.7h5.93v4.99h-6.08v4.69h7.12v5.14h-13.65v-24.66Zm-41.85,0c5.2.44,8.76,2.94,8.76,7.34,0,1.91-1.64,5.28-4.16,6.31l5.34,11.01h-6.97l-5.49-11.3h-.3v11.3h-6.53v-24.66Zm-11.57,0v5.14h-6.98v4.7h6.09v4.99h-5.94a27.9338,27.9338,0,0,1,0,4.84h6.83v4.99h-13.51v-24.66Zm-33.69,0,2.82,13.5h.3l2.82-13.5h8.75l3.27,24.66h-6.53l-1.93-16.88-4.16,16.88h-4.6l-4.3-17.03-1.93,17.03h-6.23l3.26-24.66Zm-30.87,0,2.97,13.65,3.12-13.65h8.6l3.42,24.66h-6.53l-1.93-16.88-4.31,16.88h-4.45l-4.45-17.03-1.78,17.03h-6.23l3.11-24.66Zm102.25-.29v5.72a24.323,24.323,0,0,0-3.41-.44c-4.6,0-6.38,3.82-6.38,7.19,0,3.82,1.92,7.34,6.52,7.34a21.5543,21.5543,0,0,0,3.27-.44v5.73a27.5862,27.5862,0,0,1-4.01.44c-4.89,0-10.39-2.06-12.46-9.1-.15-.88-.45-2.5-.45-2.79v-2.64c.89-8.37,7.13-11.45,12.91-11.45C247.7089,9.4132,249.9289,9.7032,251.2689,9.8532Zm-114.71,12.47c0,6.32-2.23,13.07-10.84,13.07-3.86,0-8.75-1.32-10.24-7.2-.29-1.46-.74-4.11-.74-4.4v-3.37c.6-7.49,4.75-11.01,10.69-11.01C134.3289,9.4132,136.5589,16.0132,136.5589,22.3232Zm-23.45-12.47v5.72a24.323,24.323,0,0,0-3.41-.44c-4.6,0-6.39,3.82-6.39,7.19,0,3.82,1.93,7.34,6.53,7.34a21.5543,21.5543,0,0,0,3.27-.44v5.73a27.5862,27.5862,0,0,1-4.01.44c-8.16,0-12.91-5.87-12.91-13.21,0-7.64,5.49-12.77,12.91-12.77A26.2249,26.2249,0,0,1,113.1089,9.8532Z" fill="#ccc" fill-rule="evenodd" opacity="0.6"/></svg>