<svg id="express-logo" xmlns="http://www.w3.org/2000/svg" viewBox="0 0 131.88 32.04"><title>express-logo[svg]</title><path id="e" d="M2.96,10.26C3.29,6.92,5.13,2.7,9.29,2.7c4.46,0,5.75,4.27,5.71,7.56ZM16.3,20.35a12.5166,12.5166,0,0,1-5.71,1.15c-4.09,0-7.67-2.35-7.71-8.56H17.81c.03-.56.07-1.17.07-1.99C17.88,6.75,16.37.02,9.63.02,3.5.02,0,5.37,0,12.9c0,6.7,3.46,11.28,10.09,11.28a14.2337,14.2337,0,0,0,6.77-1.38Z" fill="#fff" fill-rule="evenodd" opacity="0.6"/><path id="x" d="M34.94,1.16,31.86,6.02c-.76,1.17-1.52,2.37-2.2,3.65h-.12c-.72-1.28-1.4-2.4-2.2-3.65L24.18,1.16H20.46l7.12,10.72L20.1,23.04h3.68l3.2-5.1c.84-1.36,1.64-2.57,2.32-3.93h.08c.8,1.4,1.52,2.61,2.32,3.93l3.28,5.1h3.8l-7.4-11.28,7.2-10.6Z" fill="#fff" fill-rule="evenodd" opacity="0.6"/><path id="p" d="M45.88,10.01c0-3.41,2.79-7.29,6.91-7.29,4.69,0,7.21,4.32,7.21,9.19,0,5.62-2.61,9.59-7.35,9.59a6.725,6.725,0,0,1-6.77-7Zm-.25-5.69-.17-3.16H42.84c.08,2.07.16,4.35.16,7.29V32.04h2.88V20.67h.09a8.3821,8.3821,0,0,0,7.26,3.51c5.31,0,9.65-3.72,9.65-12C62.88,4.57,59.6,0,53.89,0c-3.76,0-6.55,1.52-8.19,4.32Z" fill="#fff" fill-rule="evenodd" opacity="0.6"/><path id="r" d="M76.52.16a2.0217,2.0217,0,0,1-1,.1,6.282,6.282,0,0,0-5.89,4.42h-.1l-.14-3.52H66.84c.12,2.09.16,4.22.16,6.55V23.04h2.88V11.16c0-4.31,1.84-8.02,5.44-8.02a10.0222,10.0222,0,0,1,1.2.08Z" fill="#fff" fill-rule="evenodd" opacity="0.6"/><path id="e-2" data-name="e" d="M82.96,10.26c.33-3.34,2.17-7.56,6.33-7.56,4.46,0,5.75,4.27,5.71,7.56ZM96.3,20.35a12.5166,12.5166,0,0,1-5.71,1.15c-4.09,0-7.67-2.35-7.71-8.56H97.81c.03-.56.07-1.17.07-1.99,0-4.2-1.51-10.93-8.25-10.93C83.5.02,80,5.37,80,12.9c0,6.7,3.46,11.28,10.09,11.28a14.2337,14.2337,0,0,0,6.77-1.38Z" fill="#fff" fill-rule="evenodd" opacity="0.6"/><path id="s1" d="M114.24,1.4A8.4757,8.4757,0,0,0,109.22.02c-4.8,0-7.22,2.94-7.22,6.56,0,2.81,1.67,4.99,5.48,6.56,3.22,1.24,4.52,2.43,4.52,4.61,0,2.08-1.61,3.75-4.88,3.75a8.517,8.517,0,0,1-4.83-1.58l-.89,2.71a9.8956,9.8956,0,0,0,5.58,1.55c5.27,0,7.9-2.68,7.9-6.82,0-3.49-1.81-5.45-5.48-6.99-3.13-1.28-4.52-2.21-4.52-4.22,0-1.87,1.43-3.45,4.12-3.45a7.1019,7.1019,0,0,1,4.39,1.37Z" fill="#fff" fill-rule="evenodd" opacity="0.6"/><path id="s2" d="M131.24,1.4A8.4757,8.4757,0,0,0,126.22.02c-4.8,0-7.22,2.94-7.22,6.56,0,2.81,1.67,4.99,5.48,6.56,3.22,1.24,4.52,2.43,4.52,4.61,0,2.08-1.61,3.75-4.88,3.75a8.517,8.517,0,0,1-4.83-1.58l-.89,2.71a9.8956,9.8956,0,0,0,5.58,1.55c5.27,0,7.9-2.68,7.9-6.82,0-3.49-1.81-5.45-5.48-6.99-3.13-1.28-4.52-2.21-4.52-4.22,0-1.87,1.43-3.45,4.12-3.45a7.1019,7.1019,0,0,1,4.39,1.37Z" fill="#fff" fill-rule="evenodd" opacity="0.6"/></svg>