<svg id="nodejs-logo" xmlns="http://www.w3.org/2000/svg" viewBox="0 0 149 91"><title>nodejs-logo[svg]</title><g id="js-logo" opacity="0.6"><path d="M84.84,70.75c0,.89-1.19.75-1.34.75a1.3933,1.3933,0,0,1-1.04-.3c-.45-2.38-2.84-2.53-4.33-2.53-1.04,0-3.43.15-3.43,1.78,0,2.83,10.74.45,10.74,6.1,0,4.02-4.48,4.61-6.86,4.61a24.23,24.23,0,0,1-2.69-.3,5.7945,5.7945,0,0,1-2.08-.74,6.3369,6.3369,0,0,1-2.09-2.38V75.96h2.09c.89,2.67,2.68,2.97,4.77,2.97,1.04,0,4.17-.15,4.17-2.23,0-3.27-10.73-.15-10.73-6.1,0-3.86,3.87-4.16,6.26-4.16S84.84,66.74,84.84,70.75Z" fill="#fff" fill-rule="evenodd"/><path d="M88.74,62.6a3.1726,3.1726,0,0,1,1.2,1.78V80.89a3.0963,3.0963,0,0,1-1.05,1.63c-2.53,1.79-5.22,2.98-7.6,4.47-.75.29-5.97,4.01-7.61,4.01-1.49,0-5.52-2.83-6.26-3.27a6.95,6.95,0,0,1,2.38-1.19,38.3339,38.3339,0,0,1,3.88,2.08l13.87-8.18V64.83L73.53,56.8,59.81,64.83V80.59c1.19.89,3.88,2.68,5.22,2.68,1.04,0,1.49-.3,1.94-1.49V66.17a1.5913,1.5913,0,0,1,1.19-.3,1.9737,1.9737,0,0,1,1.19.3V82.52a4.0208,4.0208,0,0,1-4.02,3.28c-1.49,0-7.91-3.13-7.91-4.61V64.24a2.888,2.888,0,0,1,1.2-1.64c.29-.3,13.57-8.18,14.91-8.18C75.32,54.42,87.25,61.71,88.74,62.6Z" fill="#fff" fill-rule="evenodd"/></g><g id="e" opacity="0.6"><path d="M136.17,37.17V40.3a11.1029,11.1029,0,0,1-3.13,1.93,15.4621,15.4621,0,0,1-2.83-1.64V37.02a15.8817,15.8817,0,0,1,2.83-1.63A11.9506,11.9506,0,0,1,136.17,37.17Z" fill="#fff" fill-rule="evenodd"/><path d="M148.4,29.29c.6.45.6,2.98.6,3.27a18.91,18.91,0,0,1-.15,2.68c-.15.74-9.25,5.95-9.69,5.95a1.1158,1.1158,0,0,1-.9-.89V35.83a47.6916,47.6916,0,0,0-5.22-2.97,10.7115,10.7115,0,0,0-2.98,1.49c-.6.3-2.09.59-2.39,1.78a7.9812,7.9812,0,0,0,0,2.68c0,1.04-.74,2.53.3,3.12,4.47,2.98,9.69,5.5,14.47,8.33a.801.801,0,0,1,.44.74.8808.8808,0,0,1-.29.75c-2.69,1.63-5.67,2.97-8.36,4.6a3.7754,3.7754,0,0,1-1.19.45c-1.04,0-12.53-6.69-15.06-8.33-.45-.14-.75-.44-.75-.74V29.89c0-.45.15-.6.6-.75,2.24-1.48,14.02-8.47,15.36-8.47C133.94,20.67,145.42,27.06,148.4,29.29Z" fill="#fff" fill-rule="evenodd"/></g><path id="d" d="M109.18,4.76A83.8347,83.8347,0,0,0,100.23,0a1.0922,1.0922,0,0,0-.9.59V22.9a.7582.7582,0,0,1-.59.3c-.45,0-4.33-2.38-4.78-2.38-.89,0-11.63,6.24-14.91,8.32-.6.3-.75.75-1.04,1.19v17.4c0,1.04,8.94,5.8,12.52,7.73a26.7683,26.7683,0,0,0,3.43,1.79c1.2,0,12.98-7.14,15.37-8.63a2.0408,2.0408,0,0,0,.74-1.19V5.95A1.83,1.83,0,0,0,109.18,4.76Zm-10,31.37v5.8c-1.64,1.04-4.77,2.98-5.22,2.98-.29,0-3.43-1.94-5.07-2.83v-6.1l5.07-2.82Z" fill="#fff" fill-rule="evenodd" opacity="0.6"/><path id="o" d="M69.95,29a2.2267,2.2267,0,0,1,1.04,1.78V46.84a3.4154,3.4154,0,0,1-.74,1.49c-.75.59-14.32,8.62-15.36,8.62-.3,0-2.39-1.34-3.58-1.93-3.73-2.09-12.23-6.55-12.23-7.44V30.18c.15-.29.3-.89.74-1.04,2.24-1.33,13.72-8.32,15.07-8.32C56.23,20.82,67.42,27.51,69.95,29Z" fill="#cecece" fill-rule="evenodd" opacity="0.6"/><path id="n" d="M19.09,22.01c1.05.59,12.83,6.99,12.83,8.03v22.3c-.3.3-.45.89-.9.89-.44,0-6.26-3.42-9.1-5.2a.9336.9336,0,0,1-.59-.89V35.98a4.7852,4.7852,0,0,0-.9-1.04,29.9119,29.9119,0,0,0-4.47-2.23c-.45,0-5.37,2.53-5.37,3.42V46.99c-.15.44-.3.89-.6,1.04-2.98,1.78-8.8,5.2-9.1,5.2A1.0183,1.0183,0,0,1,0,52.64V30.04c.15-.3.3-.9.75-1.04,2.08-1.34,13.72-8.33,15.21-8.33C17.15,20.67,17.6,21.26,19.09,22.01Z" fill="#fff" fill-rule="evenodd" opacity="0.6"/></svg>