<svg id="Layer_1" data-name="Layer 1" xmlns="http://www.w3.org/2000/svg" viewBox="0 0 113.44 74.84"><title>css-logo[svg]</title><g id="CSS-logo-svg"><g id="CSS3-logo"><path d="M53,19.29H0v1.62c0,.32,3.24,34.91,4.7,52.37,7.29,2.1,14.59,4.04,21.72,6.14l21.72-5.98ZM42.95,30.44v.97c-1.13,10.99-1.94,21.82-3.08,32.65-4.37,1.3-8.91,2.59-13.45,3.88L12.48,64.06l-.81-10.5h6.64c0,1.61.17,3.39.33,5.17a52.8625,52.8625,0,0,0,7.62,2.26,76.4629,76.4629,0,0,0,7.45-2.1,3.8971,3.8971,0,0,0,.33-1.62c.16-1.93.65-5.65.65-5.98v-.97H11.5l-.48-6.46H35.33l.65-6.95H10.53c-.16-1.94-.48-3.88-.65-6.47Z" transform="translate(0 -4.58)" fill="#bbb" fill-rule="evenodd" opacity="0.5"/><path d="M42.95,30.44v.97c-1.13,10.99-1.94,21.82-3.08,32.65-4.37,1.3-8.91,2.59-13.45,3.88L12.48,64.06l-.81-10.5h6.64c0,1.61.17,3.39.33,5.17a52.8625,52.8625,0,0,0,7.62,2.26,76.4629,76.4629,0,0,0,7.45-2.1,3.8971,3.8971,0,0,0,.33-1.62c.16-1.93.65-5.65.65-5.98v-.97H11.5l-.48-6.46H35.33l.65-6.95H10.53c-.16-1.94-.48-3.88-.65-6.47Z" transform="translate(0 -4.58)" fill="#fff" fill-rule="evenodd" opacity="0.6"/><path d="M41.98,4.58V8.14l-3.89.16c1.3,1.13,2.59,2.1,3.89,3.07V14.6H32.74V11.37h4.05L32.74,8.14V4.58Zm-10.86,0V8.14H27.07l4.05,3.39V14.6h-9.4V11.37h4.05c-1.13-.97-2.59-2.1-4.05-3.23V4.58Zm-11.02,0v3.4H14.75v3.55H20.1V14.6H10.86V4.58Z" transform="translate(0 -4.58)" fill="#eee" fill-rule="evenodd" opacity="0.6"/></g><g id="CSS-text" opacity="0.6"><path d="M80.32,54.26a9.7738,9.7738,0,0,1-3.5.6c-3.89,0-6.38-2.53-6.38-7.28,0-5.07,2.85-7.44,6.41-7.44a8.7322,8.7322,0,0,1,3.44.68l.82-3.51a9.5819,9.5819,0,0,0-4.46-.86c-5.71,0-10.09,4.02-10.09,11.35,0,6.22,3.2,10.75,9.59,10.75a11.6347,11.6347,0,0,0,4.76-.85Z" transform="translate(0 -4.58)" fill="#fff" fill-rule="evenodd"/><path d="M96.68,37.5a8.5683,8.5683,0,0,0-4.27-1.05c-4.27,0-6.85,2.91-6.85,6.4,0,2.71,1.87,4.66,4.88,6.02,2.17,1,3.12,1.9,3.12,3.39,0,1.55-1.1,2.6-3.2,2.6a8.6616,8.6616,0,0,1-4.3-1.16l-.78,3.57a9.7216,9.7216,0,0,0,4.93,1.28c4.6,0,7.23-2.91,7.23-6.62,0-2.74-1.43-4.66-4.62-6.15-2.41-1.17-3.38-1.85-3.38-3.34,0-1.17.89-2.3,2.89-2.3a7.487,7.487,0,0,1,3.55.89Z" transform="translate(0 -4.58)" fill="#fff" fill-rule="evenodd"/><path d="M112.68,37.5a8.5683,8.5683,0,0,0-4.27-1.05c-4.27,0-6.85,2.91-6.85,6.4,0,2.71,1.87,4.66,4.88,6.02,2.17,1,3.12,1.9,3.12,3.39,0,1.55-1.1,2.6-3.2,2.6a8.6616,8.6616,0,0,1-4.3-1.16l-.78,3.57a9.7216,9.7216,0,0,0,4.93,1.28c4.6,0,7.23-2.91,7.23-6.62,0-2.74-1.43-4.66-4.62-6.15-2.41-1.17-3.38-1.85-3.38-3.34,0-1.17.89-2.3,2.89-2.3a7.487,7.487,0,0,1,3.55.89Z" transform="translate(0 -4.58)" fill="#fff" fill-rule="evenodd"/></g></g></svg>