<svg id="git-logo" xmlns="http://www.w3.org/2000/svg" viewBox="0 0 137.0019 57.0009"><title>git-logo[svg]</title><path id="logo" d="M33.5219,3.4612c7.68,7.51,15.37,15.18,22.9,22.99a4.0121,4.0121,0,0,1,.75,2.11c0,1.8-1.36,2.85-3.46,4.96-7.69,7.36-15.07,15.32-22.9,22.69-1.05,1.05-1.36.75-2.26.75-1.96,0-2.86-1.35-4.97-3.46-7.53-7.66-15.51-15.03-22.74-22.69-1.21-1.35-.76-1.5-.76-2.4,0-.91-.3-1.21.61-2.11,5.42-6.01,11.59-11.57,17.47-17.43l6.47,6.46a6.6015,6.6015,0,0,0-.3,1.5c0,1.81.61,3.01,2.71,4.21v15.48c-2.1,1.35-2.71,2.56-2.71,4.06a4.4054,4.4054,0,0,0,4.37,4.51,4.73,4.73,0,0,0,4.52-4.51,5.5764,5.5764,0,0,0-2.56-4.06v-15.03l5.87,5.71a6.6742,6.6742,0,0,0-.3,1.51,4.3966,4.3966,0,0,0,4.37,4.5,4.7131,4.7131,0,0,0,4.52-4.35,4.6265,4.6265,0,0,0-4.52-4.51,4.38,4.38,0,0,0-1.35.3l-6.33-6.46a4.44,4.44,0,0,0,.3-1.36,4.6239,4.6239,0,0,0-3.92-4.35c-.6-.16-1.5.45-2.1,0-2.41-1.66-4.22-4.06-6.33-6.17,3.46-3.15,4.67-6.16,7.68-6.16C30.8119.1512,30.5119.6012,33.5219,3.4612Z" fill="#fff" fill-rule="evenodd" opacity="0.6"/><path id="git" d="M82.6219,44.9412c.91.15,6.03-.3,6.03,1.95,0,3.16-6.18,3.01-7.08,3.01-1.66,0-6.63,0-6.63-2.71a2.9171,2.9171,0,0,1,1.21-2.55C78.2619,44.7912,80.5219,44.7912,82.6219,44.9412Zm4.37-20.74c0,3.45-2.86,4.51-5.12,4.51-2.86,0-4.82-1.21-4.82-4.36,0-3.31,1.81-4.81,5.12-4.81C85.3419,19.5412,86.9919,21.0412,86.9919,24.2012Zm24.86-10.07v23.14c.9.6,2.1.45,3.61.75v4.36h-15.51v-4.36c1.2-.3,3.01,0,3.61-1.05v-16.83c-.9-1.65-3.61-.9-3.61-2.25a26.3044,26.3044,0,0,1,.6-3.76Zm-26.66,0c.3,0,.6.3,1.05.3h11.15v4.96c-.61-.45-1.21-.15-1.81-.15a18.7081,18.7081,0,0,1-3.01.3c1.35,2.55,1.8,3.46,1.8,5.56,0,7.21-6.62,9.62-11.75,9.62-.3,0-3.61-.45-3.91-.45-.75,0-1.81,2.25-1.96,2.55,7.23,1.81,20.18-1.8,20.18,8.57,0,9.02-10.69,9.92-15.36,9.92-3.46,0-7.83-.3-10.84-2.26-.61-.3-2.41-2.4-2.41-3.15v-2.86a6.8952,6.8952,0,0,1,2.71-3.91c-.46-.6-1.21-1.05-1.66-1.65a5.0388,5.0388,0,0,1-.6-2.25c0-2.26,2.56-4.21,4.82-6.32-3.47-2.7-4.52-5.71-4.52-8.41,0-4.36,2.11-8.87,8.43-10.22a22.9279,22.9279,0,0,1,4.37-.15A23.8021,23.8021,0,0,1,85.1919,14.1312Zm42.32-8.87v8.12h8.13v5.56h-8.13v14.43c-.15,2.25,2.41,3,3.62,3a31.87,31.87,0,0,0,4.36-.9,36.5433,36.5433,0,0,1,1.51,4.51c0,.45-.6.45-1.05.75a31.2583,31.2583,0,0,1-7.99,1.8c-2.86,0-7.38-.9-8.43-4.96,0-.45-.3-1.35-.3-1.65l-.15-16.98h-4.07v-4.96a4.38,4.38,0,0,1,1.35-.3c4.07-.3,5.73-5.86,5.88-8.42Zm-15.51-.6c0,3.46-2.41,4.96-5.12,4.96a5.7929,5.7929,0,0,1-2.57-.6c-.45-.15-2.1-1.8-2.1-2.41v-3.75c1.05-3.01,3.01-2.86,4.67-2.86C110.0419.0012,112.0019,1.5012,112.0019,4.6612Z" fill="#aeaeae" fill-rule="evenodd" opacity="0.6"/></svg>