<svg id="Layer_1" data-name="Layer 1" xmlns="http://www.w3.org/2000/svg" viewBox="0 0 140.96 74.84"><title>html-logo[svg]</title><g id="html-logo-svg"><g id="html5-logo"><path d="M53.01,19.29H0v1.29c0,.33,3.25,35.24,4.7,52.7,7.3,2.1,14.59,4.04,21.73,6.14l21.72-5.98ZM43.12,30.44c-.32,2.1-.48,4.21-.64,6.47H17.02l.49,6.95H41.83v1.13c-.65,6.47-1.14,12.77-1.95,19.07-4.37,1.3-8.91,2.59-13.45,3.88L12.81,64.23,12,53.88h6.48l.49,5.33c2.43.49,6.97,1.94,7.46,1.94a26.6761,26.6761,0,0,0,3.89-1.13c.97-.48,3.08-.16,3.73-1.61,0-.65.16-1.3.16-1.94.16-1.46.32-3.07.48-4.53V50.32H11.68L9.89,30.44Z" transform="translate(0 -4.58)" fill="#bbb" fill-rule="evenodd" opacity="0.6"/><path d="M43.12,30.44c-.32,2.1-.48,4.21-.64,6.47H17.02l.49,6.95H41.83v1.13c-.65,6.47-1.14,12.77-1.95,19.07-4.37,1.3-8.91,2.59-13.45,3.88L12.81,64.23,12,53.88h6.48l.49,5.33c2.43.49,6.97,1.94,7.46,1.94a26.6761,26.6761,0,0,0,3.89-1.13c.97-.48,3.08-.16,3.73-1.61,0-.65.16-1.3.16-1.94.16-1.46.32-3.07.48-4.53V50.32H11.68L9.89,30.44Z" transform="translate(0 -4.58)" fill="#fff" fill-rule="evenodd" opacity="0.6"/><path d="M43.45,4.58v6.79h4.7V14.6H40.21V4.58Zm-12.97,0c.65,1.13,1.46,2.43,2.27,3.56.65-1.13,1.46-2.43,2.11-3.56h3.4V14.6H35.02V9.75a25.1446,25.1446,0,0,0-2.27,3.4c-1.14-1.13-1.3-2.27-2.59-3.4V14.6H27.08V4.58Zm-5.03,0V7.81H22.37V14.6H19.29V7.81H16.21V4.58Zm-17.34,0v3.4h3.24V4.58h3.24V14.6H11.35V11.21H8.11V14.6H4.87V4.58Z" transform="translate(0 -4.58)" fill="#eee" fill-rule="evenodd" opacity="0.6"/></g><g id="html-text" opacity="0.6"><polygon points="83.7 31.98 80.82 31.98 80.82 41.98 71.7 41.98 71.7 31.98 68.82 31.98 68.82 53.86 71.7 53.86 71.7 43.86 80.82 43.86 80.82 53.86 83.7 53.86 83.7 31.98" fill="#fff" fill-rule="evenodd"/><polygon points="101.49 32.23 87.05 32.23 87.05 34.1 92.82 34.1 92.82 53.86 95.7 53.86 95.7 34.1 101.49 34.1 101.49 32.23" fill="#fff" fill-rule="evenodd"/><path d="M124.42,36.45h-4.03l-3.08,9.67c-.83,2.72-1.5,5.21-2.02,7.56h-.09c-.52-2.4-1.16-4.84-1.94-7.53l-3-9.7h-3.99l-1.45,21.99h3l.47-9.05c.17-3.07.34-6.53.39-9.25h.08c.53,2.63,1.28,5.5,2.14,8.36l2.92,9.74h2.41l3.16-9.94c.89-2.78,1.73-5.59,2.36-8.16h.09c-.03,2.72.14,6.1.27,9.08l.48,9.22h3.11Z" transform="translate(0 -4.58)" fill="#fff" fill-rule="evenodd"/><polygon points="140.96 51.74 132.7 51.74 132.7 31.98 129.82 31.98 129.82 53.61 140.96 53.61 140.96 51.74" fill="#fff" fill-rule="evenodd"/></g></g></svg>