<svg id="Layer_1" data-name="Layer 1" xmlns="http://www.w3.org/2000/svg" viewBox="0 0 206.63 63.0022"><title>javascript-logo[svg]</title><g id="js-logo-svg"><g id="js-logo"><path d="M55.92.0122H0v1.18l5.01,55.42c7.63,2.19,22.65,6.39,22.91,6.39.16,0,15.27-4.2,22.82-6.39C52.61,37.8622,56,.3522,56,.1822,56-.0678,55.92.0122,55.92.0122Zm-7.64,11.19c.08.08.08,0,.08.25,0,.17-.17.76-.17,1.18a40.7559,40.7559,0,0,1-.59,5.38H37.25c.42,7.06.17,7.15.25,7.23h9.59v.59c-.68,6.9-1.27,13.79-2.04,20.6-4.75,1.18-14.42,3.45-14.67,3.45h-.34v-7.15c.68-.08,1.44-.25,2.2-.42a58.8855,58.8855,0,0,0,6.28-1.17c.26-.09.26-.85.26-1.01.25-2.61.76-7.57.76-7.82l-.09-.26H30.04v-20.85Zm-22.23,38.68h-.6c-5.6-1.18-11.2-2.27-16.8-3.45-.42-3.19-1.01-9.67-1.01-9.84v-.92h6.78a9.146,9.146,0,0,1,.26,1.68c.17,1.18.25,2.52.42,3.79,1.11.25,3.06.58,3.31.58h.6v-23.71H11.2l-.17-.17c-.17-2.02-.34-4.12-.59-6.64H26.05Z" fill="#bbb" fill-rule="evenodd" opacity="0.5"/><path d="M48.28,11.2022c.08.08.08,0,.08.25,0,.17-.17.76-.17,1.18a40.7559,40.7559,0,0,1-.59,5.38H37.25c.42,7.06.17,7.15.25,7.23h9.59v.59c-.68,6.9-1.27,13.79-2.04,20.6-4.75,1.18-14.42,3.45-14.67,3.45h-.34v-7.15c.68-.08,1.44-.25,2.2-.42a58.8855,58.8855,0,0,0,6.28-1.17c.26-.09.26-.85.26-1.01.25-2.61.76-7.57.76-7.82l-.09-.26H30.04v-20.85Zm-22.23,38.68h-.6c-5.6-1.18-11.2-2.27-16.8-3.45-.42-3.19-1.01-9.67-1.01-9.84v-.92h6.78a9.146,9.146,0,0,1,.26,1.68c.17,1.18.25,2.52.42,3.79,1.11.25,3.06.58,3.31.58h.6v-23.71H11.2l-.17-.17c-.17-2.02-.34-4.12-.59-6.64H26.05Z" fill="#fff" fill-rule="evenodd" opacity="0.6"/></g><g id="js-text" opacity="0.6"><path d="M77.94,21.0622H74.06v14.76c0,3.51-1.32,4.39-3.33,4.39a7.539,7.539,0,0,1-2.22-.33l-.48,3.63a10.858,10.858,0,0,0,3.12.45c4.12,0,6.79-1.86,6.79-8.11Z" fill="#fff" fill-rule="evenodd"/><path d="M90.06,38.2222a2.7939,2.7939,0,0,1-2.92,2.75,2.0379,2.0379,0,0,1-2.2-2.18c0-2.32,2.61-2.87,5.12-2.87Zm3.88-4.24c0-3.81-1.27-6.84-6.27-6.84a10.9025,10.9025,0,0,0-5.57,1.28l.75,2.79a6.8027,6.8027,0,0,1,3.94-1.2c2.55,0,3.15,1.33,3.15,3.07-5.48,0-8.88,2-8.88,6.24a4.3832,4.3832,0,0,0,4.57,4.53,5.8812,5.8812,0,0,0,4.62-1.87h.08l.24,1.96h3.61a24.63,24.63,0,0,1-.24-3.91Z" fill="#fff" fill-rule="evenodd"/><path d="M107.23,27.0622l-2.11,8.18c-.37,1.96-.67,3.39-.94,4.92h-.09c-.27-1.53-.57-2.99-.94-4.51l-2.2-8.59H96.16l5.64,16.94h4.31l5.73-16.94Z" fill="#fff" fill-rule="evenodd"/><path d="M122.06,38.2222a2.7939,2.7939,0,0,1-2.92,2.75,2.0379,2.0379,0,0,1-2.2-2.18c0-2.32,2.61-2.87,5.12-2.87Zm3.88-4.24c0-3.81-1.27-6.84-6.27-6.84a10.9025,10.9025,0,0,0-5.57,1.28l.75,2.79a6.8027,6.8027,0,0,1,3.94-1.2c2.55,0,3.15,1.33,3.15,3.07-5.48,0-8.88,2-8.88,6.24a4.3832,4.3832,0,0,0,4.57,4.53,5.8812,5.8812,0,0,0,4.62-1.87h.08l.24,1.96h3.61a24.63,24.63,0,0,1-.24-3.91Z" fill="#fff" fill-rule="evenodd"/><path d="M142.18,22.1222a8.943,8.943,0,0,0-4.55-1.05c-4.99,0-7.57,2.91-7.57,6.54,0,2.85,1.87,4.9,5.12,6.32,2.7,1.05,3.88,1.99,3.88,3.56,0,1.62-1.37,2.73-3.98,2.73a8.59,8.59,0,0,1-4.52-1.22l-.8,3.65a10.0669,10.0669,0,0,0,5.13,1.29c5.42,0,8.05-2.94,8.05-6.79,0-2.88-1.43-4.9-4.8-6.46-2.99-1.23-4.2-1.94-4.2-3.5,0-1.23,1.11-2.43,3.59-2.43a7.5447,7.5447,0,0,1,3.85.95Z" fill="#fff" fill-rule="evenodd"/><path d="M156.08,39.6622a6.7056,6.7056,0,0,1-2.7.5c-2.55,0-4.44-1.73-4.44-4.74,0-2.7,1.62-4.76,4.41-4.76a6.4521,6.4521,0,0,1,2.61.49l.72-3.49a8.79,8.79,0,0,0-3.48-.69c-5.35,0-8.14,4.02-8.14,8.62,0,4.93,2.74,8.41,7.45,8.41a9.4981,9.4981,0,0,0,4.05-.79Z" fill="#fff" fill-rule="evenodd"/><path d="M168.62,27.0622a8.75,8.75,0,0,0-.99-.06,4.4785,4.4785,0,0,0-4.09,2.97h-.1l-.16-2.91h-3.34c.06,1.52.12,3.19.12,5.28v11.6h3.88v-8.73c0-3,1.53-4.37,3.54-4.37a6.2712,6.2712,0,0,1,1.14.09Z" fill="#fff" fill-rule="evenodd"/><path d="M175.94,27.0622h-3.88v16.88h3.88Zm0-4.56c0-1.38-.78-2.37-1.95-2.37a2.1062,2.1062,0,0,0-1.93,2.37c0,1.35.78,2.37,1.93,2.37C175.11,24.8722,175.94,23.9422,175.94,22.5022Z" fill="#fff" fill-rule="evenodd"/><path d="M183.94,34.1722a3.3533,3.3533,0,0,1,3.41-3.33c2.44,0,3.71,1.98,3.71,4.71,0,2.76-1.3,4.79-3.81,4.79a3.15,3.15,0,0,1-3.31-3.3Zm-.42-4.33-.18-2.78h-3.4c.06,1.5.12,3.23.12,5.35v18.53h3.88v-8.97H184a5.2723,5.2723,0,0,0,4.42,2.06c3.52,0,6.52-2.86,6.52-8.95,0-4.4-2.33-8.08-5.95-8.08a5.99,5.99,0,0,0-5.42,2.84Z" fill="#fff" fill-rule="evenodd"/><path d="M199.06,27.2022h-2.19v2.87h2.19v7.7c0,1.85.08,6.23,4.39,6.23a8.5974,8.5974,0,0,0,2.97-.41l-.06-3.58a6.43,6.43,0,0,1-1.44.15c-1.35,0-1.98-.84-1.98-2.84v-7.25h3.69v-2.87h-3.69v-4.35l-3.88,1.29Z" fill="#fff" fill-rule="evenodd"/></g></g></svg>