<svg id="linux-logo" xmlns="http://www.w3.org/2000/svg" viewBox="0 0 159 43"><title>linux-logo[svg]</title><path id="linux" d="M147.03,23.67c5.27-5.31,4.22-6.05,7.1-9.18a15.1091,15.1091,0,0,1,4.87.49,9.7191,9.7191,0,0,0-2.87,1.93c-2.88,2.42-7.67,8.21-7.67,9.18,0,1.93,8.62,14.01,10.54,16.43h-8.62a114.1628,114.1628,0,0,0-6.23-10.15c-2.87,2.9-5.26,6.76-7.66,10.15h-4.31V41.07c2.4-1.45,10.06-10.15,10.06-11.6s-5.75-11.59-10.06-12.56V14.49c2.95-.12,1.2.13,3.83,0,.48-.02.96,0,2.4,0C143.2,14.49,142.72,19.33,147.03,23.67Zm-41.67-9.18V32.85c.96,4.35,1.92,5.32,5.27,5.32,1.92,0,3.35-.48,6.23-3.87V18.84a7.1183,7.1183,0,0,0-4.31-.96,1.7978,1.7978,0,0,1,.47-1.45c2.4-.49,6.23-1.94,7.67-1.94h2.87V39.13c.96,1.45,3.35.97,4.31,3.39H116.86a21.8333,21.8333,0,0,0-.48-5.32c-5.27,2.9-4.79,5.8-9.1,5.8a8.2276,8.2276,0,0,1-8.62-8.21V18.84a9.0345,9.0345,0,0,0-3.83-.96V16.43a45.0471,45.0471,0,0,0,7.66-1.94ZM47.89,40.1c1.92.97,2.88-.48,4.31,2.42H36.88V41.07c1.91,0,3.35,0,4.31-2.42V19.81c-.96-.97-2.88-2.9-4.31-1.93V15.94c2.39,0,5.26-.48,11.01-1.45ZM68.48,18.84c5.75-5.31,4.79-4.83,9.1-4.83,6.23,0,8.62,4.35,8.62,9.18V40.1a9.0411,9.0411,0,0,0,3.84.97v1.45H79.02V21.74c-1.44-3.38-3.35-2.9-5.75-2.9-1.43,0-3.83-.48-5.26,2.42V40.1a8.9552,8.9552,0,0,0,3.83.97v1.45H56.99V41.07a6.3582,6.3582,0,0,0,3.83-.97V19.33a31.0054,31.0054,0,0,0-3.83-1.45V16.43a83.8093,83.8093,0,0,0,10.54-2.42C68.01,15.46,68.01,17.39,68.48,18.84ZM17.72,2.42c-2.39.48-5.27-.97-5.27,2.41V38.65a12.12,12.12,0,0,0,5.27.97,53.7437,53.7437,0,0,0,10.54-1.45c.47-.97,0-4.83,2.87-5.8V42.52H1.92c.47-1.45,2.39-2.9,2.87-4.35V4.83c0-1.45-2.4-2.9-4.79-1.93V.97C16.28.97,17.24.97,17.72,2.42ZM48.37,3.87a4.6426,4.6426,0,0,1-4.31,4.34c-2.87,0-3.83-2.41-3.83-4.34,0-2.9.96-3.87,3.83-3.87C46.45,0,48.37.97,48.37,3.87Z" fill="#e5e5e5" fill-rule="evenodd" opacity="0.6"/></svg>