<svg id="mongodb-logo" xmlns="http://www.w3.org/2000/svg" viewBox="0 0 197 50"><title>mongodb-logo[svg]</title><path id="mongo" d="M120.28,44.15c0,3.19-3.59,3.72-5.2,3.72-1.79,0-5.2-.53-5.2-3.54,0-2.49,2.33-3.2,4.13-3.2C115.98,41.13,120.28,41.31,120.28,44.15Zm19.18-10.99c0,2.3-.36,5.67-3.94,5.67-3.41,0-5.38-3.72-5.38-5.85V29.43c.72-2.66,1.79-3.72,3.76-3.72C138.56,25.71,139.46,30.67,139.46,33.16Zm-61.66,0c0,2.3-.36,5.67-3.95,5.67-4.84,0-5.38-5.5-5.38-7.8,0-1.95.36-5.32,3.77-5.32C76.9,25.71,77.8,30.67,77.8,33.16Zm39.43-3.2c0,1.78-.36,3.91-2.87,3.91-3.04,0-3.76-3.2-3.76-4.79,0-1.6.9-3.55,3.05-3.55C116.52,25.53,117.23,28.19,117.23,29.96Zm25.99,1.95a8.5257,8.5257,0,0,1-8.78,8.69,7.15,7.15,0,0,1-4.12-1.06,6.1457,6.1457,0,0,1-2.15-1.6,11.226,11.226,0,0,1-1.62-3.72v-3.9c.9-4.79,5.2-6.21,8.79-6.21C140,24.11,143.22,27.13,143.22,31.91Zm-22.4-6.73a10.4681,10.4681,0,0,0,2.69-.71v1.24c-.54,1.42-1.8,1.42-3.05,1.42,0,.71.18,1.59.18,1.95,0,2.48-1.44,4.96-4.84,6.03-.9.35-2.15.17-2.87.53a.995.995,0,0,0-.9,1.06c0,3.19,11.3-1.24,11.3,5.85,0,5.32-6.81,7.45-9.86,7.45-2.69,0-6.63-1.24-6.63-4.79,0-2.12.89-2.48,3.76-4.43-.9-1.06-2.33-1.77-2.33-2.84,0-.35,1.97-1.42,2.87-2.3a5.4344,5.4344,0,0,1-3.77-5.5c0-4.43,4.13-6.03,7.53-6.03C117.05,24.11,119.02,25.18,120.82,25.18ZM81.56,31.91c0,5.32-3.76,8.69-8.78,8.69a8.8625,8.8625,0,0,1-2.87-.53c-2.15-.53-5.02-3.9-5.02-6.03V30.5c1.79-5.5,5.2-6.39,8.78-6.39C78.87,24.11,81.56,27.48,81.56,31.91ZM37.64,26.06l.36.36c2.69-1.77,3.23-2.31,5.56-2.31,2.69,0,4.12,2.31,4.3,2.31,1.08,0,3.05-2.31,5.92-2.31a5.1752,5.1752,0,0,1,5.19,5.15v8.68c.72,1.24,2.69.36,2.69,1.6a.9307.9307,0,0,1-.36.71H53.78a.9307.9307,0,0,1-.36-.71c0-1.06,1.97-.71,2.33-1.95V29.61a3.4906,3.4906,0,0,0-3.77-3.19c-.71,0-3.76.53-3.76,1.95l.18,9.22c.18,1.77,2.51.53,2.51,1.95a.9307.9307,0,0,1-.36.71H42.66c0-.18-.18-.18-.18-.71,0-1.42,2.69-.18,2.51-1.77a1.0689,1.0689,0,0,0,.18-.71V35.64a2.2432,2.2432,0,0,1,.18-1.07V31.21c0-2.66-1.25-4.97-3.76-4.97-.54,0-3.95.89-3.95,1.95v9.4c.18,1.59,2.51.71,2.51,1.95a.9307.9307,0,0,1-.36.71H31.91c0-.18-.18-.18-.18-.71,0-1.42,2.69-.18,2.69-1.77a3.0167,3.0167,0,0,1,.18-1.25V27.66c-.54-1.06-1.98-1.06-2.87-1.6a1.3738,1.3738,0,0,1,.36-.71c1.61-.35,3.4-.7,5.55-1.24A7.0456,7.0456,0,0,1,37.64,26.06Zm60.95-1.77c1.25.18,3.05,3.37,3.05,4.79v8.33c.71,2.13,2.69.53,2.69,2.13a.9826.9826,0,0,1-.36.89H95.9V39.18c.36-.7,1.79-.17,2.33-1.24V29.61c-.72-2.66-2.15-3.01-3.76-3.01-4.66,0-3.77,2.83-3.77,5.14a18.5868,18.5868,0,0,0,0,3.19c.18,1.06-.71,2.84.72,3.55.72.53,1.97-.18,1.97,1.06a1.0494,1.0494,0,0,1-.36.89H85.15a1.0494,1.0494,0,0,1-.36-.89c0-1.42,1.97-.18,2.51-1.77l.18-7.63c-.18-.71,0-1.77-.36-2.3-.54-.89-1.8-1.24-2.69-1.78,0-.17.18-.35.18-.53,1.79-.35,4.84-1.42,5.38-1.42h.71a7.0456,7.0456,0,0,1,0,1.95l.36.36a7.3852,7.3852,0,0,1,5.38-2.48A10.6082,10.6082,0,0,1,98.59,24.29Z" fill="#fff" fill-rule="evenodd" opacity="0.6"/><path id="db" d="M192.52,33.33c0,3.37-2.15,4.97-5.2,4.97-1.25,0-3.76-.18-3.76-2.31v-7.8h1.79C188.58,28.19,192.52,28.9,192.52,33.33Zm-1.61-11.17c0,1.6-1.08,3.73-2.87,3.73h-4.48V17.91h1.79C188.4,17.91,190.91,18.79,190.91,22.16Zm-21.69,5.85c0,5.32-2.69,10.11-8.61,10.11-1.07,0-4.66-.18-4.66-2.13V18.26c.18-.71,1.61-.53,2.51-.53C165.09,17.73,169.22,21.28,169.22,28.01Zm20.25-12.23c3.94.35,5.74,2.84,5.74,5.5,0,1.77-.9,3.19-3.23,4.96,4.3,2.31,5.02,3.37,5.02,6.21,0,4.96-5.74,7.98-9.14,7.98H175.85V39.18c.54-1.41,3.05-.17,3.4-2.12V18.44c-1.25-1.24-2.15-.71-3.4-1.06V16.31a.9948.9948,0,0,1,.89-.53Zm-25.63,0c7.53,1.77,9.86,6.38,9.86,11.7,0,11.35-10.04,12.95-17.21,12.95l-7.71-.18c-.18-.18-.36-.18-.36-.71,0-1.77,2.15-.89,2.87-1.95a1.3475,1.3475,0,0,0,.36-.89V18.79c-.54-1.59-2.51-1.24-3.77-1.59v-.71c.18-.18.36-.53.54-.71Z" fill="#b5b5b5" fill-rule="evenodd" opacity="0.6"/><g id="leaf"><path d="M12.55,45.57a9.6388,9.6388,0,0,1,1.03-2.31c-1.4-.1-1.75-5.32-1.75-5.32v-.88c-.1.39-.2.84-.31,1.32a26.033,26.033,0,0,1-.94,5.24c0,.35.35,3.9.53,5.85a8.4773,8.4773,0,0,0,1.62.53V47.7C12.73,47.16,12.37,46.1,12.55,45.57Z" fill="#e1e1e1" fill-rule="evenodd" opacity="0.6"/><path d="M11.83,1.95c-.18-.71-.18-1.42-.36-1.95C8.96,2.84,5.2,6.03,3.76,9.22A33.5349,33.5349,0,0,0,.72,17.55,35.31,35.31,0,0,1,0,22.16v3.37c0,.36.18.71.18,1.07.72,5.67,3.94,12.05,10.4,17.02.78-2.33.88-5.34,1.25-7.71Z" fill="#bfbfbf" fill-rule="evenodd" opacity="0.6"/><path d="M13.09,2.48C20.08,9.57,23.12,17.2,23.12,24.11A25.908,25.908,0,0,1,19.9,36.17c-.9,1.42-5.02,7.09-6.28,7.09-1.43,0-1.79-5.32-1.79-5.32V.71C12.73,1.06,12.37,1.77,13.09,2.48Z" fill="#8f8f8f" fill-rule="evenodd" opacity="0.6"/></g></svg>