<svg id="Mysql-logo" xmlns="http://www.w3.org/2000/svg" viewBox="0 0 168 88"><title>mysql-logo[svg]</title><path id="My" d="M48.73,62.14V74.86a3.1583,3.1583,0,0,0,3.11,1.85H64.17V62.14h5.52V82.86A5.8728,5.8728,0,0,0,69.27,84c-.43,2-5.24,4-6.94,4H43.35V84.29H61.48c.99-.29,2.41-.72,2.69-1.86V80H50.71c-1.7,0-7.36-2-7.36-4.43V62.14ZM10.06,55.86c3.54,6.28,5.95,13.28,8.92,20,3.26-6.43,5.81-13.29,9.07-19.86a4.483,4.483,0,0,1,3.11-2.14,5.436,5.436,0,0,1,1.56,0c1.7,0,5.81.28,5.81,3.43l-.14,22.85H32.86V58.43c-1.7,3.57-3.54,7.28-5.24,11.28A42.8,42.8,0,0,0,24.36,77a5.2886,5.2886,0,0,1-5.24,3.57c-1.56,0-3.11-.14-4.25-1.71-1.55-2.15-2.26-4.72-3.25-6.86-1.99-4.43-3.83-9.14-6.24-13.57V80.14H0V56.57C.71,54,3.82,53.86,5.52,53.86S8.64,53.29,10.06,55.86Z" fill="#b6b6b6" fill-rule="evenodd" opacity="0.6"/><path id="SQL" d="M121.54,58.14c1.13,0,3.4.72,3.4,2.57V73.57c0,.14-.57,2.29-1.42,2.29-.42,0-3.82-3.57-4.25-3.57h-6.23l4.25,4.14h-5.95a3.3359,3.3359,0,0,1-2.83-2.57V60.43c.14-1.72,2.12-2.29,3.25-2.29Zm17.7-3.71V74.29c-.14,1.42,2.55,2.28,3.69,2.28h15.44v3.57H142.22c-1.28-.14-8.36-1.28-8.36-5.14V54.43Zm-16.29,0c4.11.43,7.23,2.28,7.23,6.14v13a6.2224,6.2224,0,0,1-3.26,5.57l5.1,4.86h-6.23c-1.14-1.14-3.69-4-5.1-4-.29,0-6.52.29-6.94.29-.29,0-2.55-.15-3.83-.15-2.26,0-7.36-2-7.36-4.85V59.14c.56-3.14,4.53-4.57,6.94-4.71Zm-23.93,0v3.43L81.88,58c-2.7.29-2.27,2-2.27,3.43s0,4,2.41,4h8.5a19.6013,19.6013,0,0,1,3.11.43c5.67,1.71,5.1,3.43,5.1,6.71a27.2856,27.2856,0,0,1-.14,3c-.14,2.29-5.1,4.57-7.22,4.57H74.23V76.57H89.67a4.6105,4.6105,0,0,0,3.54-1.86V70.43a4.6938,4.6938,0,0,0-2.84-1.57H83.15c-1.56.14-8.92-1.57-8.92-4.43V59c.14-3,4.25-4.57,6.23-4.57Z" fill="#fff" fill-rule="evenodd" opacity="0.6"/><path id="dolphin" d="M119.98,10.71s1.42,1.43,1.42,2c0,.29-.57,1.72-1,1.72a13.0806,13.0806,0,0,1-2.12-3.29v-.43ZM118,3.86c.85.57,1.98.14,2.97.28a24.302,24.302,0,0,1,4.39,1.15C131.74,8,140.8,16,143.78,23c1.56,3.29,2.97,7,4.67,10.57.85,1.57.99,3.43,2.83,4.57,1.56,1.15,3.69,1.43,5.53,2.57,3.12,2,6.8,4.43,9.35,8,0,.15,0,.29-.14.29a16.1875,16.1875,0,0,1-2.55.71c-1.56.29-3.26.58-4.82.86-.42.14-1.7.29-1.7.57,0,.72,2.55,2.43,2.69,2.43,2.69,1.14,6.38,5,8.36,7.86v.43a44.2057,44.2057,0,0,0-4.11-3.15c-3.11-1.71-8.07-3.42-10.2-7.57a2.0721,2.0721,0,0,1-.28-1c0-1.28,5.38-1.85,7.22-2.14l2.7-.14a29.6244,29.6244,0,0,0-7.65-5.57c-1.99-1-4.54-1.15-6.38-2.43-1.41-.86-2.26-3.29-2.69-4.15-1.42-3.14-3.12-6.28-4.25-9.42-2.69-7.58-12.75-17.86-20.11-19.58-1.7-.42-3.69-.28-5.24-.57-.71-.14-1.28-1-1.99-1.43-1.41-.85-4.53-2.57-6.09-2.57-.99,0-1.56.29-1.56,1.29,0,1.86,3.4,5.28,4.25,7a22.07,22.07,0,0,1,1.7,4.28c.43.86.57,2,.99,3,.85,2.15,3.83,6,3.83,6.29,0,.43-.99,2.86-1.42,4.43a25.7371,25.7371,0,0,0-.56,4.86c0,2.42.7,7.57,3.11,9.28h.43c.56-3,.14-6.28,3.25-9.28.71.14.85,1.57,1.14,2.42A45.3112,45.3112,0,0,0,132.3,49c-3.96-2.86-7.65-6.86-9.06-10.57-.99,1.86-.14,6.57-3.4,6.57-3.83,0-5.53-8.29-5.53-9.57V31.71a8.0236,8.0236,0,0,0,.29-2c.56-1.71,1.56-5,1.56-5.28,0-.43-2.55-3.14-3.4-5.57-.85-2.15-1.28-4.57-2.27-6.57-1.56-3.58-4.96-5.58-4.96-8.86,0-2.29,1.42-3.43,3.54-3.43C112.61,0,115.45,2.57,118,3.86Z" fill="#b6b6b6" fill-rule="evenodd" opacity="0.6"/></svg>