<svg id="Layer_1" data-name="Layer 1" xmlns="http://www.w3.org/2000/svg" viewBox="0 0 150.61 150.61">
<title>nav-home[new]</title><path d="M47.587,149.881H41.2193V136.7853H33.857V149.881H27.4888V117.757H33.857v11.9092h7.3623V117.757H47.587Z" fill="#fff"/><path d="M74.4674,133.775q0,8.1079-2.9034,12.3267a9.664,9.664,0,0,1-8.5009,4.2187,9.6725,9.6725,0,0,1-8.4615-4.2407q-2.9436-4.2407-2.9433-12.3486,0-8.02,2.9277-12.2495a9.7007,9.7007,0,0,1,8.5088-4.23,9.64,9.64,0,0,1,8.4853,4.1968Q74.4674,125.6451,74.4674,133.775Zm-16.1363,0q0,9.3165,4.732,9.3164a3.786,3.786,0,0,0,3.5688-2.2631q1.1624-2.2632,1.1631-7.0533,0-4.812-1.1792-7.1079a3.77,3.77,0,0,0-3.521-2.2964Q58.3311,124.3707,58.3311,133.775Z" fill="#fff"/><path d="M88.7882,149.881l-4.7959-23.1372h-.1446q.3369,5.9106.3369,9.1846V149.881H78.57V117.757h8.437L91.9,140.5646h.1279l4.7964-22.8076h8.4531v32.124H99.4547V135.7965q0-1.0986.0239-2.4389t.2168-6.57h-.1446L94.8189,149.881Z" fill="#fff"/><path d="M124.1212,149.881H110.1983V117.757h13.9229v6.9653h-7.587v5.0537H123.56v6.9653h-7.0254v6.0645h7.587Z" fill="#fff"/><path d="M131.9849,55.6544l-4.3594,5.7813a2.33,2.33,0,0,1-1.4765.8594h-.211a2.0241,2.0241,0,0,1-1.4765-.5469L75.8052,16.67,27.149,61.7482a2.4207,2.4207,0,0,1-1.6875.5469,2.3233,2.3233,0,0,1-1.4766-.8594l-4.3594-5.7813a2.7237,2.7237,0,0,1-.4922-1.8359,2.3537,2.3537,0,0,1,.7735-1.68L70.4615,5.3419a8.0449,8.0449,0,0,1,10.6875,0L98.3052,21.2794V6.0451a2.5854,2.5854,0,0,1,.6328-1.7969,2.0771,2.0771,0,0,1,1.6172-.7031h13.5a2.0791,2.0791,0,0,1,1.6172.7031,2.5849,2.5849,0,0,1,.6328,1.7969V37.92l15.3985,14.2187a2.3657,2.3657,0,0,1,.7734,1.68A2.7389,2.7389,0,0,1,131.9849,55.6544Zm-15.68,5.3907v37.5a5.083,5.083,0,0,1-1.3359,3.5156,4.124,4.124,0,0,1-3.1641,1.4844h-27v-30h-18v30h-27a4.1194,4.1194,0,0,1-3.164-1.4844,5.0758,5.0758,0,0,1-1.336-3.5156v-37.5a1.1251,1.1251,0,0,1,.0352-.2344,1.2054,1.2054,0,0,0,.0351-.2344l40.43-37.0312,40.43,37.0312A1.22,1.22,0,0,1,116.3052,61.0451Z" fill="#fff"/>
</svg>