<?xml version="1.0" encoding="utf-8"?>
<!-- Generator: Adobe Illustrator 23.0.1, SVG Export Plug-In . SVG Version: 6.00 Build 0)  -->
<svg version="1.1" id="Layer_1" xmlns="http://www.w3.org/2000/svg" xmlns:xlink="http://www.w3.org/1999/xlink" x="0px" y="0px"
	 viewBox="0 0 340 340" style="enable-background:new 0 0 340 340;" xml:space="preserve">
<style type="text/css">
	.st0{fill-rule:evenodd;clip-rule:evenodd;fill:#FFFFFF;}
	.st1{opacity:0.8;fill-rule:evenodd;clip-rule:evenodd;enable-background:new    ;}
	.st2{fill:#FFFFFF;}
</style>
<path id="circle" class="st0" d="M50.3,170c0,66.3,53.7,120,120,120s120-53.7,120-120s-53.7-120-120-120S50.3,103.7,50.3,170z
	 M60.8,170c0-60.5,49-109.5,109.5-109.5s109.5,49,109.5,109.5s-49,109.5-109.5,109.5S60.8,230.5,60.8,170z"/>
<path id="circle-bg" class="st1" d="M60.8,170c0-60.5,49-109.5,109.5-109.5s109.5,49,109.5,109.5s-49,109.5-109.5,109.5
	S60.8,230.5,60.8,170z"/>
<g id="icon">
	<path class="st2" d="M229,107c0,3.5-1.1,6.8-3.2,9.9c-2.2,3.2-4.8,5.9-8,8.1c-16.5,11.5-26.8,18.6-30.8,21.4c-0.4,0.3-1.4,1-2.8,2
		c-1.4,1-2.6,1.9-3.6,2.5c-0.9,0.6-2.1,1.4-3.4,2.1c-1.3,0.8-2.6,1.4-3.8,1.8s-2.3,0.6-3.3,0.6H170h-0.1c-1,0-2.1-0.2-3.3-0.6
		s-2.4-1-3.8-1.8c-1.3-0.8-2.5-1.5-3.4-2.1c-0.9-0.6-2.1-1.5-3.6-2.5c-1.4-1-2.4-1.7-2.8-2c-4-2.8-9.7-6.8-17.3-12s-12-8.3-13.5-9.4
		c-2.7-1.8-5.3-4.4-7.7-7.6c-2.4-3.2-3.6-6.2-3.6-9c0-3.4,0.9-6.3,2.7-8.6c1.8-2.3,4.4-3.4,7.8-3.4h96.9c2.9,0,5.3,1,7.4,3.1
		C228,101.7,229,104.1,229,107z M229,126.4v52.3c0,2.9-1,5.4-3.1,7.4c-2.1,2.1-4.5,3.1-7.4,3.1h-96.9c-2.9,0-5.4-1-7.4-3.1
		c-2.1-2.1-3.1-4.5-3.1-7.4v-52.3c1.9,2.2,4.1,4.1,6.7,5.7c15.9,10.8,26.8,18.4,32.7,22.7c2.5,1.8,4.5,3.3,6.1,4.3
		c1.6,1,3.6,2.1,6.2,3.2c2.6,1.1,5,1.6,7.2,1.6h0.1h0.1c2.2,0,4.7-0.5,7.2-1.6c2.6-1.1,4.7-2.1,6.2-3.2c1.6-1,3.6-2.5,6.1-4.3
		c7.5-5.4,18.4-13,32.8-22.7C224.9,130.4,227.1,128.5,229,126.4z"/>
</g>
<g id="contact">
	<path class="st2" d="M114.4,233.2c-0.1,4.1-1,7.1-2.6,9.2c-1.6,2.1-3.8,3.1-6.7,3.1c-3,0-5.3-1.3-6.9-4c-1.6-2.6-2.4-6.4-2.4-11.3
		v-6c0-4.9,0.8-8.6,2.5-11.3c1.7-2.6,4-4,6.9-4c2.9,0,5.1,1.1,6.6,3.2c1.5,2.2,2.4,5.3,2.6,9.3H109c0-2.5-0.3-4.2-0.9-5.2
		c-0.5-1-1.5-1.4-2.9-1.4c-1.4,0-2.5,0.7-3.1,2c-0.6,1.3-0.9,3.6-1,6.6v6.7c0,3.5,0.3,6,0.9,7.3s1.6,2,3,2c1.4,0,2.4-0.5,2.9-1.4
		c0.5-0.9,0.8-2.6,0.9-5H114.4z"/>
	<path class="st2" d="M137.1,230.4c0,4.8-0.8,8.5-2.5,11.1s-4,4-7,4c-3,0-5.3-1.3-7-3.9c-1.7-2.6-2.6-6.3-2.6-11v-6.1
		c0-4.9,0.8-8.7,2.5-11.4c1.7-2.7,4.1-4.1,7.1-4.1c3,0,5.3,1.3,7,4c1.7,2.7,2.6,6.5,2.6,11.3V230.4z M131.7,224.5
		c0-3.2-0.3-5.6-1-7.2s-1.7-2.3-3.2-2.3c-1.4,0-2.5,0.8-3.2,2.3c-0.7,1.5-1,3.8-1.1,6.9v6.3c0,3.1,0.3,5.4,1,6.9
		c0.7,1.5,1.8,2.2,3.2,2.2c1.4,0,2.4-0.7,3.1-2.2c0.7-1.4,1-3.7,1-6.7V224.5z"/>
	<path class="st2" d="M160.4,245H155l-7.9-23.3V245h-5.4v-35.5h5.4l7.9,23.3v-23.3h5.4V245z"/>
	<path class="st2" d="M182.1,215.4h-6.6V245h-5.4v-29.6h-6.5v-6h18.5V215.4z"/>
	<path class="st2" d="M196.5,237.7h-7.3l-1.4,7.3H182l8.3-35.5h4.9l8.4,35.5h-5.7L196.5,237.7z M190.3,231.7h5l-2.5-12.7
		L190.3,231.7z"/>
	<path class="st2" d="M224.5,233.2c-0.1,4.1-1,7.1-2.6,9.2c-1.6,2.1-3.8,3.1-6.7,3.1c-3,0-5.3-1.3-6.9-4c-1.6-2.6-2.4-6.4-2.4-11.3
		v-6c0-4.9,0.8-8.6,2.5-11.3c1.7-2.6,4-4,6.9-4c2.9,0,5.1,1.1,6.6,3.2c1.5,2.2,2.4,5.3,2.6,9.3h-5.4c0-2.5-0.3-4.2-0.9-5.2
		c-0.5-1-1.5-1.4-2.9-1.4c-1.4,0-2.5,0.7-3.1,2c-0.6,1.3-0.9,3.6-1,6.6v6.7c0,3.5,0.3,6,0.9,7.3s1.6,2,3,2c1.4,0,2.4-0.5,2.9-1.4
		c0.5-0.9,0.8-2.6,0.9-5H224.5z"/>
	<path class="st2" d="M245.3,215.4h-6.6V245h-5.4v-29.6h-6.5v-6h18.5V215.4z"/>
</g>
</svg>
