<svg class="nav-icon" id="nav-contact" xmlns="http://www.w3.org/2000/svg" viewBox="0 0 150.61 150.61">
<title>nav-contact[new]</title><path d="M11.8056,124.9444a3.7155,3.7155,0,0,0-3.372,2.4253,15.1829,15.1829,0,0,0-1.211,6.687q0,8.8608,4.92,8.86a7.5825,7.5825,0,0,0,2.8813-.5668,24.2349,24.2349,0,0,0,2.8052-1.3648v7.0127a11.9968,11.9968,0,0,1-6.3457,1.7007,8.8018,8.8018,0,0,1-7.7783-4.0313Q.9994,141.6362,1,134.0147a24.5174,24.5174,0,0,1,1.31-8.3774,12.14,12.14,0,0,1,3.77-5.5538,9.064,9.064,0,0,1,5.7862-1.9418,12.5048,12.5048,0,0,1,6.9433,2.1626l-1.8545,6.53a18.0906,18.0906,0,0,0-2.4833-1.3437A6.5526,6.5526,0,0,0,11.8056,124.9444Z" fill="#fff"/><path d="M43.039,133.8887q0,7.7476-2.7739,11.7788a9.2357,9.2357,0,0,1-8.1235,4.0313,9.2416,9.2416,0,0,1-8.085-4.0523q-2.8132-4.0516-2.8125-11.8,0-7.6635,2.7969-11.7055A9.27,9.27,0,0,1,32.1723,118.1a9.2123,9.2123,0,0,1,8.108,4.01Q43.0392,126.1207,43.039,133.8887Zm-15.4189,0q0,8.9027,4.5215,8.9024a3.6173,3.6173,0,0,0,3.41-2.1626q1.1112-2.1621,1.1114-6.74a15.5549,15.5549,0,0,0-1.1265-6.7925,3.6022,3.6022,0,0,0-3.3643-2.1938Q27.62,124.9024,27.62,133.8887Z" fill="#fff"/><path d="M68.2954,149.2789h-7.94l-8.1846-21.626h-.1377q.2907,5.1021.291,7.79v13.8365H46.96V118.5826h7.9087l8.1538,21.332h.0923q-.2152-4.64-.2148-7.4536V118.5826h5.3955Z" fill="#fff"/><path d="M82.8989,149.2789H76.8447V125.3643H71.373v-6.7817H88.3555v6.7817H82.8989Z" fill="#fff"/><path d="M105.1816,149.2789l-1.1035-5.753h-7.28l-1.1342,5.753H89.0117l7.311-30.8223H104.4l7.4028,30.8223Zm-2.36-12.5557-.9654-5.0391q-.3376-1.6794-.82-4.3462t-.6357-3.8212q-.1384,1.0707-.5444,3.5273t-1.8008,9.6792Z" fill="#fff"/><path d="M124.078,124.9444a3.7157,3.7157,0,0,0-3.3721,2.4253,15.1828,15.1828,0,0,0-1.2109,6.687q0,8.8608,4.92,8.86a7.5834,7.5834,0,0,0,2.8814-.5668,24.2349,24.2349,0,0,0,2.8052-1.3648v7.0127a11.9977,11.9977,0,0,1-6.3457,1.7007,8.802,8.802,0,0,1-7.7784-4.0313q-2.7056-4.0312-2.705-11.6528a24.517,24.517,0,0,1,1.31-8.3774,12.1394,12.1394,0,0,1,3.77-5.5538,9.064,9.064,0,0,1,5.7862-1.9418,12.5048,12.5048,0,0,1,6.9433,2.1626l-1.8545,6.53a18.081,18.081,0,0,0-2.4834-1.3437A6.552,6.552,0,0,0,124.078,124.9444Z" fill="#fff"/><path d="M144.23,149.2789h-6.0542V125.3643h-5.4717v-6.7817H149.686v6.7817H144.23Z" fill="#fff"/><path d="M124.8691,20.4233a14.5421,14.5421,0,0,1-2.6914,8.2994,26.1432,26.1432,0,0,1-6.707,6.76Q94.8048,49.8281,89.75,53.3452q-.5508.3854-2.3359,1.6763Q85.627,56.3142,84.4453,57.11q-1.1835.7968-2.8574,1.7861a16.7,16.7,0,0,1-3.16,1.4839,8.7366,8.7366,0,0,1-2.7485.4946h-.11a8.7244,8.7244,0,0,1-2.748-.4946,16.6349,16.6349,0,0,1-3.1607-1.4839q-1.6771-.99-2.8579-1.7861T63.835,55.0215q-1.7871-1.2906-2.336-1.6763-5.0016-3.5163-14.4-10.03T35.832,35.4829a27.274,27.274,0,0,1-6.4306-6.3481q-3.0235-4.04-3.023-7.5025a11.0945,11.0945,0,0,1,2.2808-7.145,7.8491,7.8491,0,0,1,6.5132-2.8579h80.9038a8.8647,8.8647,0,0,1,8.7929,8.7939Zm0,16.1587v43.64a8.8173,8.8173,0,0,1-8.7929,8.7939H35.1724a8.819,8.819,0,0,1-8.794-8.7939V36.582A29.1,29.1,0,0,0,31.93,41.3638q19.8955,13.52,27.3159,18.9619,3.1326,2.3079,5.084,3.6a31.2451,31.2451,0,0,0,5.1938,2.6382A15.8269,15.8269,0,0,0,75.5693,67.91h.11a15.83,15.83,0,0,0,6.0454-1.3467,31.2791,31.2791,0,0,0,5.1934-2.6382q1.9512-1.2906,5.084-3.6,9.3456-6.76,27.371-18.9619A30.23,30.23,0,0,0,124.8691,36.582Z" fill="#fff"/>
</svg>