<?xml version="1.0" encoding="utf-8"?>
<!-- Generator: Adobe Illustrator 23.0.2, SVG Export Plug-In . SVG Version: 6.00 Build 0)  -->
<svg version="1.1" id="Layer_1" xmlns="http://www.w3.org/2000/svg" xmlns:xlink="http://www.w3.org/1999/xlink" x="0px" y="0px"
	 viewBox="0 0 331.1 195.8" style="enable-background:new 0 0 331.1 195.8;" xml:space="preserve">
<style type="text/css">
	.st0{stroke:#000000;stroke-miterlimit:10;}
	.st1{fill-rule:evenodd;clip-rule:evenodd;fill:#FFFFFF;}
	.st2{fill:#FFFFFF;}
</style>
<rect x="1.4" y="0.5" class="st0" width="329.7" height="196.1"/>
<title>nav-arrow[new]</title>
<path class="st1" d="M234.6,195c1.4-0.1,2.8-0.6,3.8-1.6l90.9-90.8c2.3-2.4,2.3-6.2,0-8.5L238.4,3.1c-1.1-1-2.4-1.5-3.8-1.6h-15.5
	c-2.1,0-2.6,1.2-1.1,2.7L307.8,94c2.4,2.3,2.4,6.2,0,8.5L218,192.3c-1.4,1.5-1,2.7,1.1,2.7H234.6z"/>
<g>
	<path d="M176.6,17.7c-3.1-2.8-7-4.4-11.1-4.6H24.6c-5.4,0-9.7,4.4-9.7,9.7v150c0,5.4,4.4,9.7,9.7,9.7h142.2c4.1-0.2,8-1.8,11.1-4.6
		l76.6-77.2c1.5-1.5,1.5-3.9,0-5.3L176.6,17.7z"/>
	<path class="st2" d="M274,95.6L183.7,5.3c-3.5-3.2-8.1-5.1-12.8-5.3H12.6C6.4,0,1.4,5,1.4,11.2v173.3c0,6.2,5,11.2,11.3,11.3h159.8
		c4.7-0.3,9.3-2.1,12.8-5.3l88.8-89.5C275.5,99.5,275.5,97.1,274,95.6z M254.5,100.9l-76.6,77.2c-3.1,2.8-7,4.4-11.1,4.6H24.6
		c-5.4,0-9.7-4.4-9.7-9.7v-150c0-5.4,4.4-9.7,9.7-9.7h140.9c4.1,0.2,8,1.8,11.1,4.6l77.9,77.8C256,97,256,99.4,254.5,100.9z"/>
</g>
</svg>
