<?xml version="1.0" encoding="utf-8"?>
<!-- Generator: Adobe Illustrator 23.0.1, SVG Export Plug-In . SVG Version: 6.00 Build 0)  -->
<svg version="1.1" id="Layer_1" xmlns="http://www.w3.org/2000/svg" xmlns:xlink="http://www.w3.org/1999/xlink" x="0px" y="0px"
	 viewBox="0 0 340 340" style="enable-background:new 0 0 340 340;" xml:space="preserve">
<style type="text/css">
	.st0{fill-rule:evenodd;clip-rule:evenodd;fill:#FFFFFF;}
	.st1{opacity:0.8;fill-rule:evenodd;clip-rule:evenodd;enable-background:new    ;}
	.st2{fill:#FFFFFF;}
</style>
<path id="circle" class="st0" d="M50.3,170c0,66.3,53.7,120,120,120s120-53.7,120-120s-53.7-120-120-120S50.3,103.7,50.3,170z
	 M60.8,170c0-60.5,49-109.5,109.5-109.5s109.5,49,109.5,109.5s-49,109.5-109.5,109.5S60.8,230.5,60.8,170z"/>
<path id="circle-bg" class="st1" d="M60.8,170c0-60.5,49-109.5,109.5-109.5s109.5,49,109.5,109.5s-49,109.5-109.5,109.5
	S60.8,230.5,60.8,170z"/>
<g id="icon_1_">
	<path class="st2" d="M236.3,139.5l-5.1,6.1c-0.4,0.5-1,0.8-1.7,0.9h-0.2c-0.7,0-1.3-0.2-1.7-0.6L170,98.6l-57.4,47.3
		c-0.7,0.4-1.3,0.6-2,0.6c-0.7-0.1-1.3-0.4-1.7-0.9l-5.1-6.1c-0.4-0.5-0.6-1.2-0.6-1.9c0.1-0.7,0.4-1.3,0.9-1.8l59.6-49.1
		c1.8-1.4,3.9-2.1,6.3-2.1c2.4,0,4.5,0.7,6.3,2.1l20.2,16.7v-16c0-0.8,0.2-1.4,0.7-1.9c0.5-0.5,1.1-0.7,1.9-0.7h15.9
		c0.8,0,1.4,0.2,1.9,0.7c0.5,0.5,0.7,1.1,0.7,1.9v33.5l18.2,14.9c0.6,0.4,0.9,1,0.9,1.8C236.9,138.3,236.7,139,236.3,139.5z
		 M217.8,145.2v39.4c0,1.4-0.5,2.7-1.6,3.7c-1.1,1-2.3,1.6-3.7,1.6h-31.9v-31.5h-21.2v31.5h-31.9c-1.4,0-2.7-0.5-3.7-1.6
		c-1.1-1-1.6-2.3-1.6-3.7v-39.4c0-0.1,0-0.1,0-0.2c0-0.1,0-0.2,0-0.2l47.7-38.9l47.7,38.9C217.7,144.8,217.8,144.9,217.8,145.2z"/>
</g>
<g id="home">
	<path class="st2" d="M133.5,248h-7.6v-16.1h-11.2V248H107v-37.7h7.6v15.2h11.2v-15.2h7.6V248z"/>
	<path class="st2" d="M166.1,232.6c0,5.1-1.2,9-3.6,11.8c-2.4,2.8-5.7,4.2-10,4.2c-4.2,0-7.5-1.4-10-4.2c-2.4-2.8-3.6-6.6-3.7-11.6
		v-6.4c0-5.2,1.2-9.2,3.6-12.1c2.4-2.9,5.7-4.4,10-4.4c4.2,0,7.5,1.4,9.9,4.3c2.4,2.9,3.6,6.9,3.7,12V232.6z M158.4,226.2
		c0-3.4-0.5-5.9-1.4-7.6c-1-1.7-2.5-2.5-4.5-2.5c-2,0-3.5,0.8-4.5,2.4c-1,1.6-1.5,4-1.5,7.3v6.7c0,3.3,0.5,5.7,1.5,7.3
		c1,1.6,2.5,2.3,4.6,2.3c2,0,3.5-0.8,4.4-2.3c1-1.5,1.5-3.9,1.5-7.1V226.2z"/>
	<path class="st2" d="M181.5,210.3l7.1,27.3l7.1-27.3h9.9V248H198v-10.2l0.7-15.7l-7.5,25.9H186l-7.5-25.9l0.7,15.7V248h-7.6v-37.7
		H181.5z"/>
	<path class="st2" d="M231.2,231.7h-11.9v10h14v6.3h-21.6v-37.7h21.6v6.3h-14v8.9h11.9V231.7z"/>
</g>
</svg>
