<svg id="php-logo" xmlns="http://www.w3.org/2000/svg" viewBox="0 0 132 71"><title>php-logo[svg]</title><g id="php-text" opacity="0.6"><path id="p" d="M100.49,22.68l-15.22.08L79.66,52.83l7.25-.02,1.38-8.22,6.22-.02c4.68-.02,12.39-1.5,14.39-8.2a24.8048,24.8048,0,0,0,1.04-5.07C109.94,26.66,106.9,22.9,100.49,22.68Zm-2.25,5.5c2.77.07,4.5,1.44,4.5,3.75,0,.17-.26,1.46-.35,2.15-.43,3.52-4.07,4.99-6.58,5l-6.4.02,2.08-10.89Z" transform="translate(-0.39 -1)" fill="#fff" fill-rule="evenodd"/><path id="h" d="M42.63,22.98l-15.03.08L22.06,52.95l7.16-.02,1.37-8.17,6.14-.02c4.62-.02,12.24-1.49,14.21-8.15a25.33,25.33,0,0,0,1.03-5.04C51.97,26.94,48.97,23.21,42.63,22.98Zm-2.22,5.47c2.74.07,4.45,1.43,4.45,3.73,0,.17-.26,1.45-.34,2.13-.43,3.5-4.02,4.96-6.5,4.97l-6.32.02,2.04-10.82Z" transform="translate(-0.39 -1)" fill="#fff" fill-rule="evenodd"/><path id="P-2" data-name="P" d="M66.22,11.92,63.9,22.79l7.83.04c5.08.23,8.7,1.32,8.7,6.29,0,2.39-3.01,14.47-3.1,15.5l-7.24.02,2.76-12.75V30.18c0-1.2-1.98-1.96-3.01-1.95l-7.06.03L59.35,44.67l-7.12.02,6.86-32.72Z" transform="translate(-0.39 -1)" fill="#fff" fill-rule="evenodd"/></g><path id="ring" d="M72.68,1.1,63.64,1c-.17,0-.34,0-2.83.11a113.3367,113.3367,0,0,0-18.6,2.36C28.2,6.29,1.92,15.73.39,35.85v1.78a18.462,18.462,0,0,0,.93,5.26c5.77,17.48,31.23,26.3,51.34,28.34,2.14.17,4.37.43,6.52.6L68.2,72l4.48-.17c1.29-.09,2.58-.26,3.87-.34,1.56-.17,3.28-.35,4.92-.52,1.55-.25,3.11-.43,4.57-.68,2.34-.43,4.84-.95,7.18-1.46,14.29-3.18,39.17-13.96,39.17-32.64,0-21-30.95-32.48-51.61-34.46C78.11,1.49,75.35,1.25,72.68,1.1Zm.6,5.47c2.24.16,4.48.31,6.72.55a90.996,90.996,0,0,1,27.68,7.36c10.51,4.84,19.13,12.62,19.13,21.74,0,12.38-15.48,21.18-26.58,24.89-3.47,1.12-6.75,2.06-10.13,2.84-1.9.43-3.88.86-5.87,1.11-.43.09-10.35,1.38-12.59,1.38l-11.52.01c-5.06-.43-10.29-.93-15.35-1.87C30.84,62.04,14.15,55.34,8.03,44.74c-.85-1.53-2.21-5.09-2.21-6.79V35.49C7.77,19.86,29.48,11.9,41.44,9.18A116.6508,116.6508,0,0,1,58.58,6.67l3.77-.19Z" transform="translate(-0.39 -1)" fill="#fff" fill-rule="evenodd" opacity="0.6"/></svg>