<svg id="sass-logo" xmlns="http://www.w3.org/2000/svg" viewBox="0 0 103 77"><title>sass-logo[svg]</title><path id="sass" d="M63.16,56.31c-.1,1.75-2.89,4.53-4.44,5.25l-.61-.1,5.05-5.87ZM23.12,58.57a13.3311,13.3311,0,0,1-6.19,11.02,10.6717,10.6717,0,0,1-4.65,1.65A2.3523,2.3523,0,0,1,9.6,68.56c0-6.28,8.15-10.81,13.11-13.59A14.7362,14.7362,0,0,1,23.12,58.57ZM77.1,52.71a6.2188,6.2188,0,0,1-4.03,5.45h-.31v-.92a12.7286,12.7286,0,0,1,3.92-6.28A3.1375,3.1375,0,0,1,77.1,52.71ZM43.97,43.75c0,1.85-5.47,17.71-7.13,17.71-1.23,0-1.34-4.12-1.34-4.33,0-.2.21-2.16.31-3.19a4.1809,4.1809,0,0,0,.21-1.03c.41-2.47,3.82-9.98,7.02-9.98C43.66,42.93,43.97,43.13,43.97,43.75ZM64.81,12.56c0,5.45-3.4,12.15-10.01,16.88a32.9507,32.9507,0,0,1-18.88,5.77c-2.27,0-5.58-.21-7.54-1.34-1.75-.93-4.54-3.09-4.54-4.94,0-.21.1-.52.41-.52.21,0,1.45,1.34,2.38,1.85a12.9027,12.9027,0,0,0,6.81,1.75c7.33,0,19.92-4.63,24.56-13.69a12.951,12.951,0,0,0,1.55-5.14c0-5.56-6.4-7-9.8-7-.31,0-1.76-.21-1.97-.21-.31,0-2.37.1-2.68.1a44.69,44.69,0,0,0-9.18,1.86,61.87,61.87,0,0,0-12.49,5.66C15.07,18.53,7.53,24.6,7.53,32.22c0,4.94,4.34,8.96,10.12,13.18,2.06,1.54,6.09,5.35,6.29,5.35.31,0,5.68-3.19,8.57-4.74.41-.3,1.14-.41,1.55-.82,1.03-.93,2.48-2.98,3.92-3.91a10.017,10.017,0,0,1,1.24-.93,7.8686,7.8686,0,0,1,4.13-1.34c2.78,0,3.2,2.68,3.2,4.23a20.4713,20.4713,0,0,0-.11,2.36,1.9739,1.9739,0,0,1,1.45-.61c.93,0,1.96.61,1.96,1.44,0,.51-2.79,10.19-2.79,12.35a1.6575,1.6575,0,0,0,.31,1.34c.1-.11.31-.21.41-.41,1.76-3.09,3.1-6.28,4.44-9.17.42-.92.83-2.05,1.24-2.88a18.6972,18.6972,0,0,1,1.14-2.57q1.08-2.625,2.16-4.94a24.2442,24.2442,0,0,0,.93-2.58c.21-.51.11-1.33.52-1.64.51-.62,2.48-.83,3.61-.83.52,0,2.48.11,2.48,1.03,0,.31-.72,2.06-1.03,3.19a13.9155,13.9155,0,0,0-.31,2.58,12.0261,12.0261,0,0,0,1.85,6.17c.73-1.03,1.86-2.98,2.58-4.32.52-1.03,1.24-2.26,1.86-3.4a31.01,31.01,0,0,0,1.76-3.7c.41-1.34.51-3.3,1.44-4.02a13.4477,13.4477,0,0,1,3.41-.51c.41,0,2.37,0,2.37.92,0,.31-.72,1.86-.93,2.89a21.9676,21.9676,0,0,0-.41,2.88,15.605,15.605,0,0,0,2.37,7.51c1.03-.1,2.38-.92,3.61-1.23a27.8355,27.8355,0,0,1,4.34-.83h1.65c7.02,0,14.14,4.23,14.14,11.02a6.7788,6.7788,0,0,1-1.14,3.71c-.1.2-2.78,2.88-3.71,2.88h-.62c-.1-.11-.1-.11-.1-.31,0-.41,3.61-2.06,3.61-5.35a8.5961,8.5961,0,0,0-5.16-7.11,17.5306,17.5306,0,0,0-8.26-1.54A15.9913,15.9913,0,0,0,80.4,48.9a33.6754,33.6754,0,0,1,.93,4.01c0,1.96-1.45,4.22-3.82,5.97-.72.52-4.54,2.47-5.78,2.47a2.4316,2.4316,0,0,1-2.38-2.67c0-.21.21-1.34.31-2.06a14.6944,14.6944,0,0,1,1.04-2.27,6.8158,6.8158,0,0,1,1.44-2.06c.93-1.23,3.2-3.19,3.2-3.39,0-.31-1.24-2.37-1.65-3.5-.52-1.55-.72-3.09-1.24-4.64-.62,1.03-1.34,2.27-1.96,3.4a40.9443,40.9443,0,0,1-2.17,3.71c-.62,1.13-2.16,3.09-2.16,3.39,0,.21.2.42.3.83a13.878,13.878,0,0,1,.93,4.01c0,5.77-6.7,8.55-10.63,8.55a10.1611,10.1611,0,0,1-1.44-.21,2.2046,2.2046,0,0,1-1.24-1.34c0-1.54,7.74-9.78,7.74-10.39,0-.31-.93-1.65-1.24-2.47a30.624,30.624,0,0,1-1.96-6.39c-.1,0-.41.21-.41.41-2.07,5.56-5.37,11.74-8.26,17.3-.72,1.44-2.78,4.53-4.54,4.53-2.68,0-2.79-3.81-2.79-5.15,0-.2.21-2.16.21-2.47,0-.21,0-.21-.1-.31-1.96,2.58-3,9.37-6.92,9.37a4.798,4.798,0,0,1-2.06-.62,7.8647,7.8647,0,0,1-2.27-3.29,18.3571,18.3571,0,0,1-1.03-4.43V56.62c.1-.52.1-1.13.2-1.75,0-.31.11-.72.11-1.03a3.7988,3.7988,0,0,0,.2-1.13c.21-.72.41-1.45.62-2.37l-.1-.31c-1.14.72-5.68,2.98-5.68,3.4a10.2562,10.2562,0,0,0,.52,1.33,16.77,16.77,0,0,1,.82,4.95A17.123,17.123,0,0,1,19.2,74.32,18.9984,18.9984,0,0,1,10.84,77c-.31,0-2.27-.41-3.2-.51-1.45-.11-3.31-2.17-3.72-3.5a21.1339,21.1339,0,0,1-.51-2.17V68.97a10.9272,10.9272,0,0,1,1.34-4.43c4.23-6.17,10.42-8.95,15.48-11.73-5.47-4.84-11.97-7.62-17.13-14a14.8232,14.8232,0,0,1-1.14-1.65,2.1626,2.1626,0,0,1-.41-.72A21.8128,21.8128,0,0,1,.1,32.63c0-.1-.1-.1-.1-.31V30.47a20.44,20.44,0,0,1,2.37-6.59C8.05,14.62,17.65,9.16,24.98,5.66,32.2,2.16,39.42,0,46.65,0,53.25,0,64.81,1.96,64.81,12.56Z" fill="#eee" fill-rule="evenodd" opacity="0.6"/></svg>