<svg id="wordpress-logo" xmlns="http://www.w3.org/2000/svg" viewBox="0 0 164 85"><title>wordpress-logo[svg]</title><path id="wordpress" d="M111.7,69.84a2.9207,2.9207,0,0,1,2.36,3.03c0,1.63-.86,3.25-2.9,3.25h-2.04V69.84Zm-36.73,0c3.75.43,4.83,3.68,4.83,6.39,0,3.68-1.61,6.5-5.91,6.5-1.18,0-2.15,0-2.15-1.63V69.84Zm-18.37,0a3.1827,3.1827,0,0,1-.54,6.28H54.02V69.84ZM43.39,76.23c0,3.25-1.72,7.04-5.91,7.04a5.27,5.27,0,0,1-5.37-3.79,9.0259,9.0259,0,0,1-.43-1.84V74.93c.75-4.01,2.69-5.63,5.8-5.63C41.67,69.3,43.39,72.98,43.39,76.23Zm68.41-7.8c3.12.22,5.59,1.73,5.59,4.55,0,2.27-1.93,3.9-4.41,4.44,2.15,2.6,4.95,5.96,7.52,5.96a2.348,2.348,0,0,0,2.37-2.28V71.36a2.3969,2.3969,0,0,0-3.01-2.17v-.76h13.75l.32,4.33h-.65a3.2374,3.2374,0,0,0-3-3.03h-4.3v5.42h2.26c1.61-.22,1.93-1.63,1.93-2.71h.64v6.93h-.64c-.11-1.73-.65-2.82-2.15-2.82h-2.04v3.47c-.11,2.81,2.04,2.81,3.54,2.81,1.83,0,4.41,0,4.62-3.03h.65c-.11,1.73-.22,3.03-.33,4.33H115.13l-5.26-6.6h-.86v2.81a2.6824,2.6824,0,0,0,3.12,3.04v.75h-9.24v-.75c.97.21,3.11-.65,3.01-2.17V71.25c-.22-.33-.22-1.19-.97-1.74a3.5487,3.5487,0,0,0-2.04-.32v-.76Zm-55.09,0c3.22.22,5.58,1.73,5.58,4.55,0,2.27-1.72,3.9-4.4,4.44,2.9,3.36,4.83,5.96,7.84,5.96,1.5,0,2.68-.44,2.79-2.5V71.57a2.4842,2.4842,0,0,0-3.11-2.38v-.76h9.56c5.58.43,8.48,3.47,8.48,7.8,0,3.25-1.61,6.28-6.01,7.47-.65.11-1.94.43-2.26.43H60.14c-1.71-2.16-3.54-4.44-5.26-6.6h-.43c-.75,0-.54.76-.54,1.08,0,2.27-.1,5.09,3.12,4.77v.75H47.79v-.75c1.29.32,3.23-1.09,3.01-2.5a5.1182,5.1182,0,0,1,.11-1.29V72.87c-.22-.76,0-1.84-.54-2.71a2.4,2.4,0,0,0-2.58-.97v-.76Zm105.89-.65V73.3h-.86c-.42-2.59-1.93-4.11-4.08-4.11-1.07,0-2.68.43-2.68,2.06a1.8156,1.8156,0,0,0,.21.97c1.18,1.41,2.58,1.63,3.87,2.38a17.6793,17.6793,0,0,1,3.54,2.06A4.9334,4.9334,0,0,1,164,79.8c0,3.47-3.33,4.98-5.69,4.98a7.0165,7.0165,0,0,1-4.19-1.62,1.79,1.79,0,0,0-.86,1.62h-.75V78.39h.75a5.5317,5.5317,0,0,0,5.37,4.99c1.29,0,2.9-.87,2.9-2.39,0-4-9.02-3.35-9.02-8.98,0-3.04,2.9-4.12,4.94-4.12a5.6486,5.6486,0,0,1,3.65,1.19,7.8922,7.8922,0,0,0,.75-1.3Zm-14.6,0V73.3h-.86c-.43-2.81-1.94-4.11-4.08-4.11-1.08,0-2.69.54-2.69,2.06,0,3.25,9.02,3.03,9.02,8.55,0,3.25-3,4.98-5.58,4.98a7.6026,7.6026,0,0,1-4.3-1.62,2.46,2.46,0,0,0-.86,1.62h-.75V78.39h.86a5.243,5.243,0,0,0,5.26,4.99c1.18,0,2.9-.76,2.9-2.39,0-4-9.02-3.35-9.02-8.98,0-3.15,3.12-4.12,4.94-4.12a5.4829,5.4829,0,0,1,3.65,1.19c.33-.11.65-1.08.76-1.3ZM46.83,76.23c0,5.3-4.94,8.55-9.35,8.55-2.79,0-7.09-1.51-8.8-5.41a13.619,13.619,0,0,1-.54-1.95V75.15c.64-5.09,5.8-7.37,9.24-7.37C41.89,67.78,46.83,71.03,46.83,76.23ZM94.3,65.29c3,.43,3.65,2.28,3.65,4.22,0,1.52-.86,4.01-3.22,4.01H91.5V65.29Zm.64-1.62c3.87.21,6.66,2.27,6.66,5.74a9.2168,9.2168,0,0,1-.21,1.51c-.33,2.38-3.98,4.33-6.02,4.33H91.4v4.66a6.005,6.005,0,0,0,.43,2.06c.64,1.51,2.15,1.19,3.33,1.41v.75H84.42v-.75c1.82.32,3.76-1.3,3.65-2.82a2.9266,2.9266,0,0,1,.11-.97V68a3.1522,3.1522,0,0,1-.22-.98,3.2983,3.2983,0,0,0-.97-2.05,5.4285,5.4285,0,0,0-2.57-.55v-.75Zm-84.63,0v.75c-1.5-.1-2.9.22-2.9,1.85,0,1.51,3.44,11.15,3.65,11.58,1.61-4.65,3.22-9.42,4.73-14.18h.86c1.5,4.65,3.11,9.42,4.72,14.18.32-.97,3.76-10.28,3.76-11.69,0-1.74-1.5-1.74-2.9-1.74v-.75h8.7v.75c-1.29-.1-3.33.11-4.08,2.28C24.7,72.65,22.77,78.94,20.73,85H20.3L15.36,70.06,10.42,85H9.88c-.43-1.41-.97-2.82-1.4-4.22-.43-1.3-.85-2.82-1.28-4.01A102.543,102.543,0,0,0,3.54,66.16a4.1537,4.1537,0,0,0-.85-1.09c-.76-.65-2.05-.54-2.69-.65v-.75Z" fill="#eee" fill-rule="evenodd" opacity="0.6"/><path id="logo" d="M88.92,49.61a46.41,46.41,0,0,1-7.12,1.05c-.35,0-4-.35-5.91-.7l6.43-18.45ZM72.06,48.4c-6.78-2.44-11.99-12.02-11.99-16.72v-4.7a20.3516,20.3516,0,0,1,1.74-6.09ZM103.7,29.25c0,6.26-2.61,13.23-10.43,18.28,2.6-8.36,5.91-16.02,8.17-24.2V19.67A19.9084,19.9084,0,0,1,103.7,29.25ZM96.4,13.4c-1.92-.34-3.83,2.27-3.83,3.83,0,3.14,4,5.92,4,10.97,0,3.14-3.13,11.49-3.65,13.75L85.1,19.32s3.3.35,3.3-1.22c0-.34-.17-.52-.52-.87H75.19a1.1663,1.1663,0,0,0-.69.87c0,1.4,2.6,1.05,3.12,1.22,1.22,2.96,2.26,6.1,3.48,9.06L76.41,42.13,68.59,19.32s3.3.35,3.3-1.22c0-.87-1.04-1.04-1.22-1.04-.52,0-2.43.35-2.95.35h-4c5.21-7.49,12.17-9.4,18.25-9.4A22.0418,22.0418,0,0,1,96.4,13.4Zm11.12,15.85A25.716,25.716,0,0,1,57.99,39c-.18-.7-1.74-6.62-1.74-7.32v-4.7C58.16,11.14,70.5,3.66,81.8,3.66A25.5309,25.5309,0,0,1,107.52,29.25Zm3.65,0a29.5536,29.5536,0,0,1-29.2,29.42c-10.78,0-24.16-6.44-28.33-21.42a55.9262,55.9262,0,0,1-1.04-6.26V27.68C54.16,9.57,68.59,0,81.8,0A29.4356,29.4356,0,0,1,111.17,29.25Z" fill="#eee" fill-rule="evenodd" opacity="0.6"/></svg>